M48
; DRILL file {KiCad 9.0.3+dfsg-1} date 2026-05-10T16:43:49+0200
; FORMAT={-:-/ absolute / metric / decimal}
; #@! TF.CreationDate,2026-05-10T16:43:49+02:00
; #@! TF.GenerationSoftware,Kicad,Pcbnew,9.0.3+dfsg-1
; #@! TF.FileFunction,Plated,1,2,PTH
FMAT,2
METRIC
; #@! TA.AperFunction,Plated,PTH,ViaDrill
T1C0.300
; #@! TA.AperFunction,Plated,PTH,ViaDrill
T2C0.400
; #@! TA.AperFunction,Plated,PTH,ComponentDrill
T3C0.600
; #@! TA.AperFunction,Plated,PTH,ComponentDrill
T4C1.000
%
G90
G05
T1
X27.0Y-32.0
X27.0Y-36.0
X27.0Y-41.0
X27.0Y-46.0
X27.0Y-52.0
X27.0Y-57.0
X27.0Y-62.0
X27.0Y-67.0
X27.0Y-70.0
X27.0Y-73.0
X27.0Y-76.0
X28.0Y-54.5
X29.0Y-67.106
X30.9Y-63.2
X31.0Y-73.0
X32.0Y-28.0
X32.0Y-60.5
X32.0Y-81.0
X32.3Y-33.7
X32.5Y-47.5
X34.0Y-34.5
X34.0Y-42.5
X35.25Y-50.25
X35.34Y-46.32
X36.0Y-28.0
X36.0Y-81.0
X36.5Y-61.5
X36.997Y-40.008
X37.1Y-34.7
X37.3Y-52.7
X37.3Y-56.3
X38.75Y-52.5
X39.0Y-44.25
X39.0Y-56.5
X40.32Y-42.5
X40.52Y-49.59
X41.0Y-28.0
X41.0Y-56.75
X41.0Y-58.5
X41.0Y-81.0
X41.4Y-37.7
X41.7Y-36.5
X42.0Y-69.5
X42.5Y-52.5
X42.5Y-64.0
X42.8Y-34.8
X43.0Y-56.5
X43.2Y-36.9
X44.04Y-30.97
X44.062Y-66.2
X44.5Y-57.0
X44.5Y-58.0
X45.25Y-34.85
X45.32Y-36.57
X46.0Y-28.0
X46.0Y-58.5
X46.0Y-69.5
X46.0Y-81.0
X46.5Y-45.0
X47.4Y-58.75
X47.5Y-34.1
X47.665Y-43.585
X47.993Y-69.48
X48.2Y-35.3
X49.9Y-68.875
X50.0Y-42.65
X50.5Y-48.0
X51.0Y-28.0
X51.0Y-55.0
X51.0Y-57.0
X51.0Y-81.0
X51.85Y-41.15
X52.0Y-71.0
X52.174Y-68.875
X52.6Y-32.5
X52.6Y-34.0
X52.8Y-45.425
X54.0Y-32.0
X54.0Y-55.0
X54.0Y-57.0
X54.0Y-59.0
X54.0Y-74.8
X54.14Y-69.99
X54.4Y-43.05
X54.5Y-67.0
X55.3Y-59.5
X55.3Y-62.9
X55.5Y-30.0
X55.5Y-32.0
X55.7Y-76.9
X56.0Y-28.0
X56.0Y-33.5
X56.0Y-35.7
X56.0Y-53.0
X56.0Y-63.8
X56.0Y-65.0
X56.0Y-67.0
X56.0Y-81.0
X56.27Y-70.01
X56.8Y-52.0
X57.0Y-56.0
X57.0Y-59.0
X57.489Y-45.989
X57.5Y-63.0
X57.5Y-72.3
X58.0Y-30.0
X58.0Y-34.0
X58.0Y-53.0
X58.2Y-77.0
X58.5Y-36.0
X58.5Y-48.0
X59.0Y-70.25
X59.25Y-38.65
X59.3Y-37.75
X60.0Y-28.0
X60.3Y-77.0
X60.5Y-30.0
X60.5Y-34.0
X60.5Y-36.0
X60.5Y-62.0
X60.65Y-37.75
X61.0Y-81.0
X61.5Y-63.5
X61.5Y-70.2
X61.8Y-71.8
X62.0Y-54.0
X62.0Y-59.5
X62.0Y-74.0
X62.0Y-76.0
X62.45Y-38.65
X62.5Y-36.5
X62.8Y-58.2
X63.0Y-34.0
X63.0Y-64.0
X63.9Y-59.6
X64.0Y-28.0
X64.0Y-38.0
X64.0Y-40.0
X64.0Y-42.0
X64.0Y-54.0
X64.1Y-56.9
X64.5Y-35.5
X64.5Y-64.5
X65.0Y-66.0
X65.5Y-53.9
X66.0Y-35.0
X66.0Y-37.0
X66.0Y-60.0
X66.0Y-81.0
X66.2Y-58.1
X66.5Y-39.0
X66.5Y-41.0
X67.0Y-54.0
X67.5Y-60.0
X67.6Y-66.02
X68.5Y-54.0
X69.0Y-28.0
X69.0Y-60.0
X69.0Y-61.5
X69.0Y-63.0
X69.0Y-64.5
X69.0Y-66.0
X70.0Y-54.0
X70.5Y-42.0
X70.5Y-60.0
X71.0Y-32.0
X71.0Y-37.0
X71.0Y-54.5
X71.0Y-56.0
X71.0Y-57.5
X71.0Y-59.0
X71.0Y-74.0
X71.0Y-78.5
X71.0Y-81.0
X74.0Y-28.0
X76.0Y-37.0
X76.0Y-74.0
X76.0Y-81.0
X80.0Y-34.0
X80.0Y-39.0
X80.0Y-44.0
X80.0Y-49.0
X80.0Y-54.0
X80.0Y-59.0
X80.0Y-64.0
X80.0Y-69.0
X80.0Y-74.0
T2
X41.85Y-74.6
X48.05Y-74.6
X50.3Y-33.6
X50.95Y-36.9
X65.85Y-68.15
X67.1Y-66.9
T4
X30.064Y-40.08
X30.064Y-42.62
X39.97Y-78.19
X42.51Y-78.19
X45.05Y-78.19
X47.59Y-78.19
X50.13Y-78.19
X52.67Y-78.19
X76.8Y-40.09
X76.8Y-42.63
X76.8Y-45.17
X76.8Y-47.71
X76.8Y-50.25
X76.8Y-52.79
X76.8Y-55.33
X76.8Y-61.68
X76.8Y-64.22
X76.8Y-66.76
X76.8Y-69.3
T3
G00X29.075Y-50.18
M15
G01X28.275Y-50.18
M16
G05
G00X29.075Y-58.82
M15
G01X28.275Y-58.82
M16
G05
G00X33.405Y-50.18
M15
G01X32.305Y-50.18
M16
G05
G00X33.405Y-58.82
M15
G01X32.305Y-58.82
M16
G05
M30
