%TF.GenerationSoftware,KiCad,Pcbnew,9.0.3+dfsg-1*%
%TF.CreationDate,2026-05-10T16:43:56+02:00*%
%TF.ProjectId,IMU_Extendor_Board,494d555f-4578-4746-956e-646f725f426f,rev?*%
%TF.SameCoordinates,Original*%
%TF.FileFunction,Legend,Top*%
%TF.FilePolarity,Positive*%
%FSLAX46Y46*%
G04 Gerber Fmt 4.6, Leading zero omitted, Abs format (unit mm)*
G04 Created by KiCad (PCBNEW 9.0.3+dfsg-1) date 2026-05-10 16:43:56*
%MOMM*%
%LPD*%
G01*
G04 APERTURE LIST*
%ADD10C,0.300000*%
%ADD11C,0.200000*%
%ADD12C,0.150000*%
%ADD13C,0.250000*%
%ADD14C,0.120000*%
%ADD15C,0.127000*%
%ADD16C,0.100000*%
G04 APERTURE END LIST*
D10*
X29968796Y-45600828D02*
X29254510Y-45600828D01*
X29254510Y-45600828D02*
X29183082Y-46315114D01*
X29183082Y-46315114D02*
X29254510Y-46243685D01*
X29254510Y-46243685D02*
X29397368Y-46172257D01*
X29397368Y-46172257D02*
X29754510Y-46172257D01*
X29754510Y-46172257D02*
X29897368Y-46243685D01*
X29897368Y-46243685D02*
X29968796Y-46315114D01*
X29968796Y-46315114D02*
X30040225Y-46457971D01*
X30040225Y-46457971D02*
X30040225Y-46815114D01*
X30040225Y-46815114D02*
X29968796Y-46957971D01*
X29968796Y-46957971D02*
X29897368Y-47029400D01*
X29897368Y-47029400D02*
X29754510Y-47100828D01*
X29754510Y-47100828D02*
X29397368Y-47100828D01*
X29397368Y-47100828D02*
X29254510Y-47029400D01*
X29254510Y-47029400D02*
X29183082Y-46957971D01*
X30468796Y-45600828D02*
X30968796Y-47100828D01*
X30968796Y-47100828D02*
X31468796Y-45600828D01*
D11*
X40467219Y-47930326D02*
X41276742Y-47930326D01*
X41276742Y-47930326D02*
X41371980Y-47882707D01*
X41371980Y-47882707D02*
X41419600Y-47835088D01*
X41419600Y-47835088D02*
X41467219Y-47739850D01*
X41467219Y-47739850D02*
X41467219Y-47549374D01*
X41467219Y-47549374D02*
X41419600Y-47454136D01*
X41419600Y-47454136D02*
X41371980Y-47406517D01*
X41371980Y-47406517D02*
X41276742Y-47358898D01*
X41276742Y-47358898D02*
X40467219Y-47358898D01*
X41419600Y-46930326D02*
X41467219Y-46787469D01*
X41467219Y-46787469D02*
X41467219Y-46549374D01*
X41467219Y-46549374D02*
X41419600Y-46454136D01*
X41419600Y-46454136D02*
X41371980Y-46406517D01*
X41371980Y-46406517D02*
X41276742Y-46358898D01*
X41276742Y-46358898D02*
X41181504Y-46358898D01*
X41181504Y-46358898D02*
X41086266Y-46406517D01*
X41086266Y-46406517D02*
X41038647Y-46454136D01*
X41038647Y-46454136D02*
X40991028Y-46549374D01*
X40991028Y-46549374D02*
X40943409Y-46739850D01*
X40943409Y-46739850D02*
X40895790Y-46835088D01*
X40895790Y-46835088D02*
X40848171Y-46882707D01*
X40848171Y-46882707D02*
X40752933Y-46930326D01*
X40752933Y-46930326D02*
X40657695Y-46930326D01*
X40657695Y-46930326D02*
X40562457Y-46882707D01*
X40562457Y-46882707D02*
X40514838Y-46835088D01*
X40514838Y-46835088D02*
X40467219Y-46739850D01*
X40467219Y-46739850D02*
X40467219Y-46501755D01*
X40467219Y-46501755D02*
X40514838Y-46358898D01*
X40943409Y-45930326D02*
X40943409Y-45596993D01*
X41467219Y-45454136D02*
X41467219Y-45930326D01*
X41467219Y-45930326D02*
X40467219Y-45930326D01*
X40467219Y-45930326D02*
X40467219Y-45454136D01*
X41467219Y-44454136D02*
X40991028Y-44787469D01*
X41467219Y-45025564D02*
X40467219Y-45025564D01*
X40467219Y-45025564D02*
X40467219Y-44644612D01*
X40467219Y-44644612D02*
X40514838Y-44549374D01*
X40514838Y-44549374D02*
X40562457Y-44501755D01*
X40562457Y-44501755D02*
X40657695Y-44454136D01*
X40657695Y-44454136D02*
X40800552Y-44454136D01*
X40800552Y-44454136D02*
X40895790Y-44501755D01*
X40895790Y-44501755D02*
X40943409Y-44549374D01*
X40943409Y-44549374D02*
X40991028Y-44644612D01*
X40991028Y-44644612D02*
X40991028Y-45025564D01*
X41867219Y-63630326D02*
X40867219Y-63630326D01*
X40867219Y-63630326D02*
X40867219Y-63249374D01*
X40867219Y-63249374D02*
X40914838Y-63154136D01*
X40914838Y-63154136D02*
X40962457Y-63106517D01*
X40962457Y-63106517D02*
X41057695Y-63058898D01*
X41057695Y-63058898D02*
X41200552Y-63058898D01*
X41200552Y-63058898D02*
X41295790Y-63106517D01*
X41295790Y-63106517D02*
X41343409Y-63154136D01*
X41343409Y-63154136D02*
X41391028Y-63249374D01*
X41391028Y-63249374D02*
X41391028Y-63630326D01*
X40867219Y-62725564D02*
X41867219Y-62487469D01*
X41867219Y-62487469D02*
X41152933Y-62296993D01*
X41152933Y-62296993D02*
X41867219Y-62106517D01*
X41867219Y-62106517D02*
X40867219Y-61868422D01*
X41867219Y-60916041D02*
X41391028Y-61249374D01*
X41867219Y-61487469D02*
X40867219Y-61487469D01*
X40867219Y-61487469D02*
X40867219Y-61106517D01*
X40867219Y-61106517D02*
X40914838Y-61011279D01*
X40914838Y-61011279D02*
X40962457Y-60963660D01*
X40962457Y-60963660D02*
X41057695Y-60916041D01*
X41057695Y-60916041D02*
X41200552Y-60916041D01*
X41200552Y-60916041D02*
X41295790Y-60963660D01*
X41295790Y-60963660D02*
X41343409Y-61011279D01*
X41343409Y-61011279D02*
X41391028Y-61106517D01*
X41391028Y-61106517D02*
X41391028Y-61487469D01*
X48100000Y-73850000D02*
X37100000Y-73850000D01*
X72000000Y-76500000D02*
X72000000Y-69500000D01*
X37100000Y-67850000D02*
X48100000Y-67850000D01*
X31000000Y-71500000D02*
X30750000Y-71250000D01*
X40000000Y-30000000D02*
X40000000Y-33000000D01*
X43000000Y-33000000D02*
X42750000Y-33250000D01*
X34000000Y-68500000D02*
X33750000Y-68750000D01*
X43000000Y-33000000D02*
X42750000Y-32750000D01*
X40000000Y-33000000D02*
X43000000Y-33000000D01*
X31000000Y-71500000D02*
X31250000Y-71250000D01*
X64500000Y-37250000D02*
X64500000Y-49750000D01*
X40000000Y-30000000D02*
X40250000Y-30250000D01*
X68000000Y-69500000D02*
X68000000Y-76500000D01*
X64500000Y-49750000D02*
X69000000Y-49750000D01*
X37100000Y-73850000D02*
X37100000Y-67850000D01*
X72000000Y-69500000D02*
X72000000Y-76500000D01*
X68000000Y-76500000D02*
X72000000Y-76500000D01*
X69000000Y-37250000D02*
X64500000Y-37250000D01*
X68000000Y-69500000D02*
X72000000Y-69500000D01*
X40000000Y-30000000D02*
X39750000Y-30250000D01*
X34000000Y-68500000D02*
X33750000Y-68250000D01*
X31000000Y-68500000D02*
X31000000Y-71500000D01*
X48100000Y-67850000D02*
X48100000Y-73850000D01*
X69000000Y-49750000D02*
X69000000Y-37250000D01*
X34000000Y-68500000D02*
X31000000Y-68500000D01*
D12*
X43761779Y-32488866D02*
X44523684Y-32488866D01*
X44142731Y-32869819D02*
X44142731Y-32107914D01*
X44904636Y-32869819D02*
X45428445Y-32203152D01*
X44904636Y-32203152D02*
X45428445Y-32869819D01*
X37967718Y-72489411D02*
X37920099Y-72584649D01*
X37920099Y-72584649D02*
X37920099Y-72727506D01*
X37920099Y-72727506D02*
X37967718Y-72870363D01*
X37967718Y-72870363D02*
X38062956Y-72965601D01*
X38062956Y-72965601D02*
X38158194Y-73013220D01*
X38158194Y-73013220D02*
X38348670Y-73060839D01*
X38348670Y-73060839D02*
X38491527Y-73060839D01*
X38491527Y-73060839D02*
X38682003Y-73013220D01*
X38682003Y-73013220D02*
X38777241Y-72965601D01*
X38777241Y-72965601D02*
X38872480Y-72870363D01*
X38872480Y-72870363D02*
X38920099Y-72727506D01*
X38920099Y-72727506D02*
X38920099Y-72632268D01*
X38920099Y-72632268D02*
X38872480Y-72489411D01*
X38872480Y-72489411D02*
X38824860Y-72441792D01*
X38824860Y-72441792D02*
X38491527Y-72441792D01*
X38491527Y-72441792D02*
X38491527Y-72632268D01*
X38920099Y-72013220D02*
X37920099Y-72013220D01*
X37920099Y-72013220D02*
X38920099Y-71441792D01*
X38920099Y-71441792D02*
X37920099Y-71441792D01*
X38920099Y-70965601D02*
X37920099Y-70965601D01*
X37920099Y-70965601D02*
X37920099Y-70727506D01*
X37920099Y-70727506D02*
X37967718Y-70584649D01*
X37967718Y-70584649D02*
X38062956Y-70489411D01*
X38062956Y-70489411D02*
X38158194Y-70441792D01*
X38158194Y-70441792D02*
X38348670Y-70394173D01*
X38348670Y-70394173D02*
X38491527Y-70394173D01*
X38491527Y-70394173D02*
X38682003Y-70441792D01*
X38682003Y-70441792D02*
X38777241Y-70489411D01*
X38777241Y-70489411D02*
X38872480Y-70584649D01*
X38872480Y-70584649D02*
X38920099Y-70727506D01*
X38920099Y-70727506D02*
X38920099Y-70965601D01*
X40482424Y-73060839D02*
X40530043Y-72917982D01*
X40530043Y-72917982D02*
X40530043Y-72679887D01*
X40530043Y-72679887D02*
X40482424Y-72584649D01*
X40482424Y-72584649D02*
X40434804Y-72537030D01*
X40434804Y-72537030D02*
X40339566Y-72489411D01*
X40339566Y-72489411D02*
X40244328Y-72489411D01*
X40244328Y-72489411D02*
X40149090Y-72537030D01*
X40149090Y-72537030D02*
X40101471Y-72584649D01*
X40101471Y-72584649D02*
X40053852Y-72679887D01*
X40053852Y-72679887D02*
X40006233Y-72870363D01*
X40006233Y-72870363D02*
X39958614Y-72965601D01*
X39958614Y-72965601D02*
X39910995Y-73013220D01*
X39910995Y-73013220D02*
X39815757Y-73060839D01*
X39815757Y-73060839D02*
X39720519Y-73060839D01*
X39720519Y-73060839D02*
X39625281Y-73013220D01*
X39625281Y-73013220D02*
X39577662Y-72965601D01*
X39577662Y-72965601D02*
X39530043Y-72870363D01*
X39530043Y-72870363D02*
X39530043Y-72632268D01*
X39530043Y-72632268D02*
X39577662Y-72489411D01*
X39530043Y-72156077D02*
X40530043Y-71917982D01*
X40530043Y-71917982D02*
X39815757Y-71727506D01*
X39815757Y-71727506D02*
X40530043Y-71537030D01*
X40530043Y-71537030D02*
X39530043Y-71298935D01*
X40530043Y-70917982D02*
X39530043Y-70917982D01*
X39530043Y-70251316D02*
X39530043Y-70060840D01*
X39530043Y-70060840D02*
X39577662Y-69965602D01*
X39577662Y-69965602D02*
X39672900Y-69870364D01*
X39672900Y-69870364D02*
X39863376Y-69822745D01*
X39863376Y-69822745D02*
X40196709Y-69822745D01*
X40196709Y-69822745D02*
X40387185Y-69870364D01*
X40387185Y-69870364D02*
X40482424Y-69965602D01*
X40482424Y-69965602D02*
X40530043Y-70060840D01*
X40530043Y-70060840D02*
X40530043Y-70251316D01*
X40530043Y-70251316D02*
X40482424Y-70346554D01*
X40482424Y-70346554D02*
X40387185Y-70441792D01*
X40387185Y-70441792D02*
X40196709Y-70489411D01*
X40196709Y-70489411D02*
X39863376Y-70489411D01*
X39863376Y-70489411D02*
X39672900Y-70441792D01*
X39672900Y-70441792D02*
X39577662Y-70346554D01*
X39577662Y-70346554D02*
X39530043Y-70251316D01*
X42092368Y-73060839D02*
X42139987Y-72917982D01*
X42139987Y-72917982D02*
X42139987Y-72679887D01*
X42139987Y-72679887D02*
X42092368Y-72584649D01*
X42092368Y-72584649D02*
X42044748Y-72537030D01*
X42044748Y-72537030D02*
X41949510Y-72489411D01*
X41949510Y-72489411D02*
X41854272Y-72489411D01*
X41854272Y-72489411D02*
X41759034Y-72537030D01*
X41759034Y-72537030D02*
X41711415Y-72584649D01*
X41711415Y-72584649D02*
X41663796Y-72679887D01*
X41663796Y-72679887D02*
X41616177Y-72870363D01*
X41616177Y-72870363D02*
X41568558Y-72965601D01*
X41568558Y-72965601D02*
X41520939Y-73013220D01*
X41520939Y-73013220D02*
X41425701Y-73060839D01*
X41425701Y-73060839D02*
X41330463Y-73060839D01*
X41330463Y-73060839D02*
X41235225Y-73013220D01*
X41235225Y-73013220D02*
X41187606Y-72965601D01*
X41187606Y-72965601D02*
X41139987Y-72870363D01*
X41139987Y-72870363D02*
X41139987Y-72632268D01*
X41139987Y-72632268D02*
X41187606Y-72489411D01*
X41139987Y-72156077D02*
X42139987Y-71917982D01*
X42139987Y-71917982D02*
X41425701Y-71727506D01*
X41425701Y-71727506D02*
X42139987Y-71537030D01*
X42139987Y-71537030D02*
X41139987Y-71298935D01*
X41139987Y-70727506D02*
X41139987Y-70537030D01*
X41139987Y-70537030D02*
X41187606Y-70441792D01*
X41187606Y-70441792D02*
X41282844Y-70346554D01*
X41282844Y-70346554D02*
X41473320Y-70298935D01*
X41473320Y-70298935D02*
X41806653Y-70298935D01*
X41806653Y-70298935D02*
X41997129Y-70346554D01*
X41997129Y-70346554D02*
X42092368Y-70441792D01*
X42092368Y-70441792D02*
X42139987Y-70537030D01*
X42139987Y-70537030D02*
X42139987Y-70727506D01*
X42139987Y-70727506D02*
X42092368Y-70822744D01*
X42092368Y-70822744D02*
X41997129Y-70917982D01*
X41997129Y-70917982D02*
X41806653Y-70965601D01*
X41806653Y-70965601D02*
X41473320Y-70965601D01*
X41473320Y-70965601D02*
X41282844Y-70917982D01*
X41282844Y-70917982D02*
X41187606Y-70822744D01*
X41187606Y-70822744D02*
X41139987Y-70727506D01*
X43702312Y-73060839D02*
X43749931Y-72917982D01*
X43749931Y-72917982D02*
X43749931Y-72679887D01*
X43749931Y-72679887D02*
X43702312Y-72584649D01*
X43702312Y-72584649D02*
X43654692Y-72537030D01*
X43654692Y-72537030D02*
X43559454Y-72489411D01*
X43559454Y-72489411D02*
X43464216Y-72489411D01*
X43464216Y-72489411D02*
X43368978Y-72537030D01*
X43368978Y-72537030D02*
X43321359Y-72584649D01*
X43321359Y-72584649D02*
X43273740Y-72679887D01*
X43273740Y-72679887D02*
X43226121Y-72870363D01*
X43226121Y-72870363D02*
X43178502Y-72965601D01*
X43178502Y-72965601D02*
X43130883Y-73013220D01*
X43130883Y-73013220D02*
X43035645Y-73060839D01*
X43035645Y-73060839D02*
X42940407Y-73060839D01*
X42940407Y-73060839D02*
X42845169Y-73013220D01*
X42845169Y-73013220D02*
X42797550Y-72965601D01*
X42797550Y-72965601D02*
X42749931Y-72870363D01*
X42749931Y-72870363D02*
X42749931Y-72632268D01*
X42749931Y-72632268D02*
X42797550Y-72489411D01*
X42749931Y-72156077D02*
X43749931Y-71917982D01*
X43749931Y-71917982D02*
X43035645Y-71727506D01*
X43035645Y-71727506D02*
X43749931Y-71537030D01*
X43749931Y-71537030D02*
X42749931Y-71298935D01*
X43654692Y-70346554D02*
X43702312Y-70394173D01*
X43702312Y-70394173D02*
X43749931Y-70537030D01*
X43749931Y-70537030D02*
X43749931Y-70632268D01*
X43749931Y-70632268D02*
X43702312Y-70775125D01*
X43702312Y-70775125D02*
X43607073Y-70870363D01*
X43607073Y-70870363D02*
X43511835Y-70917982D01*
X43511835Y-70917982D02*
X43321359Y-70965601D01*
X43321359Y-70965601D02*
X43178502Y-70965601D01*
X43178502Y-70965601D02*
X42988026Y-70917982D01*
X42988026Y-70917982D02*
X42892788Y-70870363D01*
X42892788Y-70870363D02*
X42797550Y-70775125D01*
X42797550Y-70775125D02*
X42749931Y-70632268D01*
X42749931Y-70632268D02*
X42749931Y-70537030D01*
X42749931Y-70537030D02*
X42797550Y-70394173D01*
X42797550Y-70394173D02*
X42845169Y-70346554D01*
X43749931Y-69441792D02*
X43749931Y-69917982D01*
X43749931Y-69917982D02*
X42749931Y-69917982D01*
X43749931Y-69108458D02*
X42749931Y-69108458D01*
X43749931Y-68537030D02*
X43178502Y-68965601D01*
X42749931Y-68537030D02*
X43321359Y-69108458D01*
X45359875Y-73013220D02*
X44359875Y-73013220D01*
X44359875Y-73013220D02*
X45359875Y-72441792D01*
X45359875Y-72441792D02*
X44359875Y-72441792D01*
X45359875Y-71394173D02*
X44883684Y-71727506D01*
X45359875Y-71965601D02*
X44359875Y-71965601D01*
X44359875Y-71965601D02*
X44359875Y-71584649D01*
X44359875Y-71584649D02*
X44407494Y-71489411D01*
X44407494Y-71489411D02*
X44455113Y-71441792D01*
X44455113Y-71441792D02*
X44550351Y-71394173D01*
X44550351Y-71394173D02*
X44693208Y-71394173D01*
X44693208Y-71394173D02*
X44788446Y-71441792D01*
X44788446Y-71441792D02*
X44836065Y-71489411D01*
X44836065Y-71489411D02*
X44883684Y-71584649D01*
X44883684Y-71584649D02*
X44883684Y-71965601D01*
X45312256Y-71013220D02*
X45359875Y-70870363D01*
X45359875Y-70870363D02*
X45359875Y-70632268D01*
X45359875Y-70632268D02*
X45312256Y-70537030D01*
X45312256Y-70537030D02*
X45264636Y-70489411D01*
X45264636Y-70489411D02*
X45169398Y-70441792D01*
X45169398Y-70441792D02*
X45074160Y-70441792D01*
X45074160Y-70441792D02*
X44978922Y-70489411D01*
X44978922Y-70489411D02*
X44931303Y-70537030D01*
X44931303Y-70537030D02*
X44883684Y-70632268D01*
X44883684Y-70632268D02*
X44836065Y-70822744D01*
X44836065Y-70822744D02*
X44788446Y-70917982D01*
X44788446Y-70917982D02*
X44740827Y-70965601D01*
X44740827Y-70965601D02*
X44645589Y-71013220D01*
X44645589Y-71013220D02*
X44550351Y-71013220D01*
X44550351Y-71013220D02*
X44455113Y-70965601D01*
X44455113Y-70965601D02*
X44407494Y-70917982D01*
X44407494Y-70917982D02*
X44359875Y-70822744D01*
X44359875Y-70822744D02*
X44359875Y-70584649D01*
X44359875Y-70584649D02*
X44407494Y-70441792D01*
X44359875Y-70156077D02*
X44359875Y-69584649D01*
X45359875Y-69870363D02*
X44359875Y-69870363D01*
X45969819Y-73108458D02*
X45969819Y-72489411D01*
X45969819Y-72489411D02*
X46350771Y-72822744D01*
X46350771Y-72822744D02*
X46350771Y-72679887D01*
X46350771Y-72679887D02*
X46398390Y-72584649D01*
X46398390Y-72584649D02*
X46446009Y-72537030D01*
X46446009Y-72537030D02*
X46541247Y-72489411D01*
X46541247Y-72489411D02*
X46779342Y-72489411D01*
X46779342Y-72489411D02*
X46874580Y-72537030D01*
X46874580Y-72537030D02*
X46922200Y-72584649D01*
X46922200Y-72584649D02*
X46969819Y-72679887D01*
X46969819Y-72679887D02*
X46969819Y-72965601D01*
X46969819Y-72965601D02*
X46922200Y-73060839D01*
X46922200Y-73060839D02*
X46874580Y-73108458D01*
X45969819Y-72203696D02*
X46969819Y-71870363D01*
X46969819Y-71870363D02*
X45969819Y-71537030D01*
X45969819Y-71298934D02*
X45969819Y-70679887D01*
X45969819Y-70679887D02*
X46350771Y-71013220D01*
X46350771Y-71013220D02*
X46350771Y-70870363D01*
X46350771Y-70870363D02*
X46398390Y-70775125D01*
X46398390Y-70775125D02*
X46446009Y-70727506D01*
X46446009Y-70727506D02*
X46541247Y-70679887D01*
X46541247Y-70679887D02*
X46779342Y-70679887D01*
X46779342Y-70679887D02*
X46874580Y-70727506D01*
X46874580Y-70727506D02*
X46922200Y-70775125D01*
X46922200Y-70775125D02*
X46969819Y-70870363D01*
X46969819Y-70870363D02*
X46969819Y-71156077D01*
X46969819Y-71156077D02*
X46922200Y-71251315D01*
X46922200Y-71251315D02*
X46874580Y-71298934D01*
X69360588Y-70087606D02*
X69265350Y-70039987D01*
X69265350Y-70039987D02*
X69122493Y-70039987D01*
X69122493Y-70039987D02*
X68979636Y-70087606D01*
X68979636Y-70087606D02*
X68884398Y-70182844D01*
X68884398Y-70182844D02*
X68836779Y-70278082D01*
X68836779Y-70278082D02*
X68789160Y-70468558D01*
X68789160Y-70468558D02*
X68789160Y-70611415D01*
X68789160Y-70611415D02*
X68836779Y-70801891D01*
X68836779Y-70801891D02*
X68884398Y-70897129D01*
X68884398Y-70897129D02*
X68979636Y-70992368D01*
X68979636Y-70992368D02*
X69122493Y-71039987D01*
X69122493Y-71039987D02*
X69217731Y-71039987D01*
X69217731Y-71039987D02*
X69360588Y-70992368D01*
X69360588Y-70992368D02*
X69408207Y-70944748D01*
X69408207Y-70944748D02*
X69408207Y-70611415D01*
X69408207Y-70611415D02*
X69217731Y-70611415D01*
X69836779Y-71039987D02*
X69836779Y-70039987D01*
X69836779Y-70039987D02*
X70408207Y-71039987D01*
X70408207Y-71039987D02*
X70408207Y-70039987D01*
X70884398Y-71039987D02*
X70884398Y-70039987D01*
X70884398Y-70039987D02*
X71122493Y-70039987D01*
X71122493Y-70039987D02*
X71265350Y-70087606D01*
X71265350Y-70087606D02*
X71360588Y-70182844D01*
X71360588Y-70182844D02*
X71408207Y-70278082D01*
X71408207Y-70278082D02*
X71455826Y-70468558D01*
X71455826Y-70468558D02*
X71455826Y-70611415D01*
X71455826Y-70611415D02*
X71408207Y-70801891D01*
X71408207Y-70801891D02*
X71360588Y-70897129D01*
X71360588Y-70897129D02*
X71265350Y-70992368D01*
X71265350Y-70992368D02*
X71122493Y-71039987D01*
X71122493Y-71039987D02*
X70884398Y-71039987D01*
X69408207Y-72649931D02*
X69074874Y-72173740D01*
X68836779Y-72649931D02*
X68836779Y-71649931D01*
X68836779Y-71649931D02*
X69217731Y-71649931D01*
X69217731Y-71649931D02*
X69312969Y-71697550D01*
X69312969Y-71697550D02*
X69360588Y-71745169D01*
X69360588Y-71745169D02*
X69408207Y-71840407D01*
X69408207Y-71840407D02*
X69408207Y-71983264D01*
X69408207Y-71983264D02*
X69360588Y-72078502D01*
X69360588Y-72078502D02*
X69312969Y-72126121D01*
X69312969Y-72126121D02*
X69217731Y-72173740D01*
X69217731Y-72173740D02*
X68836779Y-72173740D01*
X69741541Y-71649931D02*
X70408207Y-72649931D01*
X70408207Y-71649931D02*
X69741541Y-72649931D01*
X68693922Y-73259875D02*
X69265350Y-73259875D01*
X68979636Y-74259875D02*
X68979636Y-73259875D01*
X69503446Y-73259875D02*
X70170112Y-74259875D01*
X70170112Y-73259875D02*
X69503446Y-74259875D01*
X68741541Y-74869819D02*
X69360588Y-74869819D01*
X69360588Y-74869819D02*
X69027255Y-75250771D01*
X69027255Y-75250771D02*
X69170112Y-75250771D01*
X69170112Y-75250771D02*
X69265350Y-75298390D01*
X69265350Y-75298390D02*
X69312969Y-75346009D01*
X69312969Y-75346009D02*
X69360588Y-75441247D01*
X69360588Y-75441247D02*
X69360588Y-75679342D01*
X69360588Y-75679342D02*
X69312969Y-75774580D01*
X69312969Y-75774580D02*
X69265350Y-75822200D01*
X69265350Y-75822200D02*
X69170112Y-75869819D01*
X69170112Y-75869819D02*
X68884398Y-75869819D01*
X68884398Y-75869819D02*
X68789160Y-75822200D01*
X68789160Y-75822200D02*
X68741541Y-75774580D01*
X69646303Y-74869819D02*
X69979636Y-75869819D01*
X69979636Y-75869819D02*
X70312969Y-74869819D01*
X70551065Y-74869819D02*
X71170112Y-74869819D01*
X71170112Y-74869819D02*
X70836779Y-75250771D01*
X70836779Y-75250771D02*
X70979636Y-75250771D01*
X70979636Y-75250771D02*
X71074874Y-75298390D01*
X71074874Y-75298390D02*
X71122493Y-75346009D01*
X71122493Y-75346009D02*
X71170112Y-75441247D01*
X71170112Y-75441247D02*
X71170112Y-75679342D01*
X71170112Y-75679342D02*
X71122493Y-75774580D01*
X71122493Y-75774580D02*
X71074874Y-75822200D01*
X71074874Y-75822200D02*
X70979636Y-75869819D01*
X70979636Y-75869819D02*
X70693922Y-75869819D01*
X70693922Y-75869819D02*
X70598684Y-75822200D01*
X70598684Y-75822200D02*
X70551065Y-75774580D01*
X65241541Y-38095487D02*
X65860588Y-38095487D01*
X65860588Y-38095487D02*
X65527255Y-38476439D01*
X65527255Y-38476439D02*
X65670112Y-38476439D01*
X65670112Y-38476439D02*
X65765350Y-38524058D01*
X65765350Y-38524058D02*
X65812969Y-38571677D01*
X65812969Y-38571677D02*
X65860588Y-38666915D01*
X65860588Y-38666915D02*
X65860588Y-38905010D01*
X65860588Y-38905010D02*
X65812969Y-39000248D01*
X65812969Y-39000248D02*
X65765350Y-39047868D01*
X65765350Y-39047868D02*
X65670112Y-39095487D01*
X65670112Y-39095487D02*
X65384398Y-39095487D01*
X65384398Y-39095487D02*
X65289160Y-39047868D01*
X65289160Y-39047868D02*
X65241541Y-39000248D01*
X66146303Y-38095487D02*
X66479636Y-39095487D01*
X66479636Y-39095487D02*
X66812969Y-38095487D01*
X67051065Y-38095487D02*
X67670112Y-38095487D01*
X67670112Y-38095487D02*
X67336779Y-38476439D01*
X67336779Y-38476439D02*
X67479636Y-38476439D01*
X67479636Y-38476439D02*
X67574874Y-38524058D01*
X67574874Y-38524058D02*
X67622493Y-38571677D01*
X67622493Y-38571677D02*
X67670112Y-38666915D01*
X67670112Y-38666915D02*
X67670112Y-38905010D01*
X67670112Y-38905010D02*
X67622493Y-39000248D01*
X67622493Y-39000248D02*
X67574874Y-39047868D01*
X67574874Y-39047868D02*
X67479636Y-39095487D01*
X67479636Y-39095487D02*
X67193922Y-39095487D01*
X67193922Y-39095487D02*
X67098684Y-39047868D01*
X67098684Y-39047868D02*
X67051065Y-39000248D01*
X65908207Y-40610192D02*
X65860588Y-40657812D01*
X65860588Y-40657812D02*
X65717731Y-40705431D01*
X65717731Y-40705431D02*
X65622493Y-40705431D01*
X65622493Y-40705431D02*
X65479636Y-40657812D01*
X65479636Y-40657812D02*
X65384398Y-40562573D01*
X65384398Y-40562573D02*
X65336779Y-40467335D01*
X65336779Y-40467335D02*
X65289160Y-40276859D01*
X65289160Y-40276859D02*
X65289160Y-40134002D01*
X65289160Y-40134002D02*
X65336779Y-39943526D01*
X65336779Y-39943526D02*
X65384398Y-39848288D01*
X65384398Y-39848288D02*
X65479636Y-39753050D01*
X65479636Y-39753050D02*
X65622493Y-39705431D01*
X65622493Y-39705431D02*
X65717731Y-39705431D01*
X65717731Y-39705431D02*
X65860588Y-39753050D01*
X65860588Y-39753050D02*
X65908207Y-39800669D01*
X66289160Y-40657812D02*
X66432017Y-40705431D01*
X66432017Y-40705431D02*
X66670112Y-40705431D01*
X66670112Y-40705431D02*
X66765350Y-40657812D01*
X66765350Y-40657812D02*
X66812969Y-40610192D01*
X66812969Y-40610192D02*
X66860588Y-40514954D01*
X66860588Y-40514954D02*
X66860588Y-40419716D01*
X66860588Y-40419716D02*
X66812969Y-40324478D01*
X66812969Y-40324478D02*
X66765350Y-40276859D01*
X66765350Y-40276859D02*
X66670112Y-40229240D01*
X66670112Y-40229240D02*
X66479636Y-40181621D01*
X66479636Y-40181621D02*
X66384398Y-40134002D01*
X66384398Y-40134002D02*
X66336779Y-40086383D01*
X66336779Y-40086383D02*
X66289160Y-39991145D01*
X66289160Y-39991145D02*
X66289160Y-39895907D01*
X66289160Y-39895907D02*
X66336779Y-39800669D01*
X66336779Y-39800669D02*
X66384398Y-39753050D01*
X66384398Y-39753050D02*
X66479636Y-39705431D01*
X66479636Y-39705431D02*
X66717731Y-39705431D01*
X66717731Y-39705431D02*
X66860588Y-39753050D01*
X65289160Y-42267756D02*
X65432017Y-42315375D01*
X65432017Y-42315375D02*
X65670112Y-42315375D01*
X65670112Y-42315375D02*
X65765350Y-42267756D01*
X65765350Y-42267756D02*
X65812969Y-42220136D01*
X65812969Y-42220136D02*
X65860588Y-42124898D01*
X65860588Y-42124898D02*
X65860588Y-42029660D01*
X65860588Y-42029660D02*
X65812969Y-41934422D01*
X65812969Y-41934422D02*
X65765350Y-41886803D01*
X65765350Y-41886803D02*
X65670112Y-41839184D01*
X65670112Y-41839184D02*
X65479636Y-41791565D01*
X65479636Y-41791565D02*
X65384398Y-41743946D01*
X65384398Y-41743946D02*
X65336779Y-41696327D01*
X65336779Y-41696327D02*
X65289160Y-41601089D01*
X65289160Y-41601089D02*
X65289160Y-41505851D01*
X65289160Y-41505851D02*
X65336779Y-41410613D01*
X65336779Y-41410613D02*
X65384398Y-41362994D01*
X65384398Y-41362994D02*
X65479636Y-41315375D01*
X65479636Y-41315375D02*
X65717731Y-41315375D01*
X65717731Y-41315375D02*
X65860588Y-41362994D01*
X66860588Y-42220136D02*
X66812969Y-42267756D01*
X66812969Y-42267756D02*
X66670112Y-42315375D01*
X66670112Y-42315375D02*
X66574874Y-42315375D01*
X66574874Y-42315375D02*
X66432017Y-42267756D01*
X66432017Y-42267756D02*
X66336779Y-42172517D01*
X66336779Y-42172517D02*
X66289160Y-42077279D01*
X66289160Y-42077279D02*
X66241541Y-41886803D01*
X66241541Y-41886803D02*
X66241541Y-41743946D01*
X66241541Y-41743946D02*
X66289160Y-41553470D01*
X66289160Y-41553470D02*
X66336779Y-41458232D01*
X66336779Y-41458232D02*
X66432017Y-41362994D01*
X66432017Y-41362994D02*
X66574874Y-41315375D01*
X66574874Y-41315375D02*
X66670112Y-41315375D01*
X66670112Y-41315375D02*
X66812969Y-41362994D01*
X66812969Y-41362994D02*
X66860588Y-41410613D01*
X67765350Y-42315375D02*
X67289160Y-42315375D01*
X67289160Y-42315375D02*
X67289160Y-41315375D01*
X68098684Y-42315375D02*
X68098684Y-41315375D01*
X68670112Y-42315375D02*
X68241541Y-41743946D01*
X68670112Y-41315375D02*
X68098684Y-41886803D01*
X65336779Y-43925319D02*
X65336779Y-42925319D01*
X65336779Y-42925319D02*
X65670112Y-43639604D01*
X65670112Y-43639604D02*
X66003445Y-42925319D01*
X66003445Y-42925319D02*
X66003445Y-43925319D01*
X66670112Y-42925319D02*
X66860588Y-42925319D01*
X66860588Y-42925319D02*
X66955826Y-42972938D01*
X66955826Y-42972938D02*
X67051064Y-43068176D01*
X67051064Y-43068176D02*
X67098683Y-43258652D01*
X67098683Y-43258652D02*
X67098683Y-43591985D01*
X67098683Y-43591985D02*
X67051064Y-43782461D01*
X67051064Y-43782461D02*
X66955826Y-43877700D01*
X66955826Y-43877700D02*
X66860588Y-43925319D01*
X66860588Y-43925319D02*
X66670112Y-43925319D01*
X66670112Y-43925319D02*
X66574874Y-43877700D01*
X66574874Y-43877700D02*
X66479636Y-43782461D01*
X66479636Y-43782461D02*
X66432017Y-43591985D01*
X66432017Y-43591985D02*
X66432017Y-43258652D01*
X66432017Y-43258652D02*
X66479636Y-43068176D01*
X66479636Y-43068176D02*
X66574874Y-42972938D01*
X66574874Y-42972938D02*
X66670112Y-42925319D01*
X67479636Y-43877700D02*
X67622493Y-43925319D01*
X67622493Y-43925319D02*
X67860588Y-43925319D01*
X67860588Y-43925319D02*
X67955826Y-43877700D01*
X67955826Y-43877700D02*
X68003445Y-43830080D01*
X68003445Y-43830080D02*
X68051064Y-43734842D01*
X68051064Y-43734842D02*
X68051064Y-43639604D01*
X68051064Y-43639604D02*
X68003445Y-43544366D01*
X68003445Y-43544366D02*
X67955826Y-43496747D01*
X67955826Y-43496747D02*
X67860588Y-43449128D01*
X67860588Y-43449128D02*
X67670112Y-43401509D01*
X67670112Y-43401509D02*
X67574874Y-43353890D01*
X67574874Y-43353890D02*
X67527255Y-43306271D01*
X67527255Y-43306271D02*
X67479636Y-43211033D01*
X67479636Y-43211033D02*
X67479636Y-43115795D01*
X67479636Y-43115795D02*
X67527255Y-43020557D01*
X67527255Y-43020557D02*
X67574874Y-42972938D01*
X67574874Y-42972938D02*
X67670112Y-42925319D01*
X67670112Y-42925319D02*
X67908207Y-42925319D01*
X67908207Y-42925319D02*
X68051064Y-42972938D01*
X68479636Y-43925319D02*
X68479636Y-42925319D01*
X65336779Y-45535263D02*
X65336779Y-44535263D01*
X65336779Y-44535263D02*
X65670112Y-45249548D01*
X65670112Y-45249548D02*
X66003445Y-44535263D01*
X66003445Y-44535263D02*
X66003445Y-45535263D01*
X66479636Y-45535263D02*
X66479636Y-44535263D01*
X66908207Y-45487644D02*
X67051064Y-45535263D01*
X67051064Y-45535263D02*
X67289159Y-45535263D01*
X67289159Y-45535263D02*
X67384397Y-45487644D01*
X67384397Y-45487644D02*
X67432016Y-45440024D01*
X67432016Y-45440024D02*
X67479635Y-45344786D01*
X67479635Y-45344786D02*
X67479635Y-45249548D01*
X67479635Y-45249548D02*
X67432016Y-45154310D01*
X67432016Y-45154310D02*
X67384397Y-45106691D01*
X67384397Y-45106691D02*
X67289159Y-45059072D01*
X67289159Y-45059072D02*
X67098683Y-45011453D01*
X67098683Y-45011453D02*
X67003445Y-44963834D01*
X67003445Y-44963834D02*
X66955826Y-44916215D01*
X66955826Y-44916215D02*
X66908207Y-44820977D01*
X66908207Y-44820977D02*
X66908207Y-44725739D01*
X66908207Y-44725739D02*
X66955826Y-44630501D01*
X66955826Y-44630501D02*
X67003445Y-44582882D01*
X67003445Y-44582882D02*
X67098683Y-44535263D01*
X67098683Y-44535263D02*
X67336778Y-44535263D01*
X67336778Y-44535263D02*
X67479635Y-44582882D01*
X68098683Y-44535263D02*
X68289159Y-44535263D01*
X68289159Y-44535263D02*
X68384397Y-44582882D01*
X68384397Y-44582882D02*
X68479635Y-44678120D01*
X68479635Y-44678120D02*
X68527254Y-44868596D01*
X68527254Y-44868596D02*
X68527254Y-45201929D01*
X68527254Y-45201929D02*
X68479635Y-45392405D01*
X68479635Y-45392405D02*
X68384397Y-45487644D01*
X68384397Y-45487644D02*
X68289159Y-45535263D01*
X68289159Y-45535263D02*
X68098683Y-45535263D01*
X68098683Y-45535263D02*
X68003445Y-45487644D01*
X68003445Y-45487644D02*
X67908207Y-45392405D01*
X67908207Y-45392405D02*
X67860588Y-45201929D01*
X67860588Y-45201929D02*
X67860588Y-44868596D01*
X67860588Y-44868596D02*
X67908207Y-44678120D01*
X67908207Y-44678120D02*
X68003445Y-44582882D01*
X68003445Y-44582882D02*
X68098683Y-44535263D01*
X65336779Y-47145207D02*
X65336779Y-46145207D01*
X65812969Y-47145207D02*
X65812969Y-46145207D01*
X65812969Y-46145207D02*
X66384397Y-47145207D01*
X66384397Y-47145207D02*
X66384397Y-46145207D01*
X66717731Y-46145207D02*
X67289159Y-46145207D01*
X67003445Y-47145207D02*
X67003445Y-46145207D01*
X65860588Y-47802770D02*
X65765350Y-47755151D01*
X65765350Y-47755151D02*
X65622493Y-47755151D01*
X65622493Y-47755151D02*
X65479636Y-47802770D01*
X65479636Y-47802770D02*
X65384398Y-47898008D01*
X65384398Y-47898008D02*
X65336779Y-47993246D01*
X65336779Y-47993246D02*
X65289160Y-48183722D01*
X65289160Y-48183722D02*
X65289160Y-48326579D01*
X65289160Y-48326579D02*
X65336779Y-48517055D01*
X65336779Y-48517055D02*
X65384398Y-48612293D01*
X65384398Y-48612293D02*
X65479636Y-48707532D01*
X65479636Y-48707532D02*
X65622493Y-48755151D01*
X65622493Y-48755151D02*
X65717731Y-48755151D01*
X65717731Y-48755151D02*
X65860588Y-48707532D01*
X65860588Y-48707532D02*
X65908207Y-48659912D01*
X65908207Y-48659912D02*
X65908207Y-48326579D01*
X65908207Y-48326579D02*
X65717731Y-48326579D01*
X66336779Y-48755151D02*
X66336779Y-47755151D01*
X66336779Y-47755151D02*
X66908207Y-48755151D01*
X66908207Y-48755151D02*
X66908207Y-47755151D01*
X67384398Y-48755151D02*
X67384398Y-47755151D01*
X67384398Y-47755151D02*
X67622493Y-47755151D01*
X67622493Y-47755151D02*
X67765350Y-47802770D01*
X67765350Y-47802770D02*
X67860588Y-47898008D01*
X67860588Y-47898008D02*
X67908207Y-47993246D01*
X67908207Y-47993246D02*
X67955826Y-48183722D01*
X67955826Y-48183722D02*
X67955826Y-48326579D01*
X67955826Y-48326579D02*
X67908207Y-48517055D01*
X67908207Y-48517055D02*
X67860588Y-48612293D01*
X67860588Y-48612293D02*
X67765350Y-48707532D01*
X67765350Y-48707532D02*
X67622493Y-48755151D01*
X67622493Y-48755151D02*
X67384398Y-48755151D01*
X40336779Y-29488866D02*
X41098684Y-29488866D01*
X40717731Y-29869819D02*
X40717731Y-29107914D01*
X41479636Y-29203152D02*
X41717731Y-29869819D01*
X41955826Y-29203152D02*
X41717731Y-29869819D01*
X41717731Y-29869819D02*
X41622493Y-30107914D01*
X41622493Y-30107914D02*
X41574874Y-30155533D01*
X41574874Y-30155533D02*
X41479636Y-30203152D01*
X61041541Y-68354819D02*
X61660588Y-68354819D01*
X61660588Y-68354819D02*
X61327255Y-68735771D01*
X61327255Y-68735771D02*
X61470112Y-68735771D01*
X61470112Y-68735771D02*
X61565350Y-68783390D01*
X61565350Y-68783390D02*
X61612969Y-68831009D01*
X61612969Y-68831009D02*
X61660588Y-68926247D01*
X61660588Y-68926247D02*
X61660588Y-69164342D01*
X61660588Y-69164342D02*
X61612969Y-69259580D01*
X61612969Y-69259580D02*
X61565350Y-69307200D01*
X61565350Y-69307200D02*
X61470112Y-69354819D01*
X61470112Y-69354819D02*
X61184398Y-69354819D01*
X61184398Y-69354819D02*
X61089160Y-69307200D01*
X61089160Y-69307200D02*
X61041541Y-69259580D01*
X61946303Y-68354819D02*
X62279636Y-69354819D01*
X62279636Y-69354819D02*
X62612969Y-68354819D01*
X62851065Y-68354819D02*
X63470112Y-68354819D01*
X63470112Y-68354819D02*
X63136779Y-68735771D01*
X63136779Y-68735771D02*
X63279636Y-68735771D01*
X63279636Y-68735771D02*
X63374874Y-68783390D01*
X63374874Y-68783390D02*
X63422493Y-68831009D01*
X63422493Y-68831009D02*
X63470112Y-68926247D01*
X63470112Y-68926247D02*
X63470112Y-69164342D01*
X63470112Y-69164342D02*
X63422493Y-69259580D01*
X63422493Y-69259580D02*
X63374874Y-69307200D01*
X63374874Y-69307200D02*
X63279636Y-69354819D01*
X63279636Y-69354819D02*
X62993922Y-69354819D01*
X62993922Y-69354819D02*
X62898684Y-69307200D01*
X62898684Y-69307200D02*
X62851065Y-69259580D01*
D13*
X67635901Y-33481442D02*
X67845425Y-33481442D01*
X67845425Y-33481442D02*
X67950187Y-33533823D01*
X67950187Y-33533823D02*
X68054949Y-33638585D01*
X68054949Y-33638585D02*
X68107330Y-33848109D01*
X68107330Y-33848109D02*
X68107330Y-34214776D01*
X68107330Y-34214776D02*
X68054949Y-34424300D01*
X68054949Y-34424300D02*
X67950187Y-34529062D01*
X67950187Y-34529062D02*
X67845425Y-34581442D01*
X67845425Y-34581442D02*
X67635901Y-34581442D01*
X67635901Y-34581442D02*
X67531139Y-34529062D01*
X67531139Y-34529062D02*
X67426377Y-34424300D01*
X67426377Y-34424300D02*
X67373996Y-34214776D01*
X67373996Y-34214776D02*
X67373996Y-33848109D01*
X67373996Y-33848109D02*
X67426377Y-33638585D01*
X67426377Y-33638585D02*
X67531139Y-33533823D01*
X67531139Y-33533823D02*
X67635901Y-33481442D01*
X68578758Y-33848109D02*
X68578758Y-34948109D01*
X68578758Y-33900490D02*
X68683520Y-33848109D01*
X68683520Y-33848109D02*
X68893044Y-33848109D01*
X68893044Y-33848109D02*
X68997806Y-33900490D01*
X68997806Y-33900490D02*
X69050187Y-33952871D01*
X69050187Y-33952871D02*
X69102568Y-34057633D01*
X69102568Y-34057633D02*
X69102568Y-34371919D01*
X69102568Y-34371919D02*
X69050187Y-34476681D01*
X69050187Y-34476681D02*
X68997806Y-34529062D01*
X68997806Y-34529062D02*
X68893044Y-34581442D01*
X68893044Y-34581442D02*
X68683520Y-34581442D01*
X68683520Y-34581442D02*
X68578758Y-34529062D01*
X69416853Y-33848109D02*
X69835901Y-33848109D01*
X69573996Y-33481442D02*
X69573996Y-34424300D01*
X69573996Y-34424300D02*
X69626377Y-34529062D01*
X69626377Y-34529062D02*
X69731139Y-34581442D01*
X69731139Y-34581442D02*
X69835901Y-34581442D01*
X70202567Y-34581442D02*
X70202567Y-33848109D01*
X70202567Y-33481442D02*
X70150186Y-33533823D01*
X70150186Y-33533823D02*
X70202567Y-33586204D01*
X70202567Y-33586204D02*
X70254948Y-33533823D01*
X70254948Y-33533823D02*
X70202567Y-33481442D01*
X70202567Y-33481442D02*
X70202567Y-33586204D01*
X71197806Y-34529062D02*
X71093044Y-34581442D01*
X71093044Y-34581442D02*
X70883520Y-34581442D01*
X70883520Y-34581442D02*
X70778758Y-34529062D01*
X70778758Y-34529062D02*
X70726377Y-34476681D01*
X70726377Y-34476681D02*
X70673996Y-34371919D01*
X70673996Y-34371919D02*
X70673996Y-34057633D01*
X70673996Y-34057633D02*
X70726377Y-33952871D01*
X70726377Y-33952871D02*
X70778758Y-33900490D01*
X70778758Y-33900490D02*
X70883520Y-33848109D01*
X70883520Y-33848109D02*
X71093044Y-33848109D01*
X71093044Y-33848109D02*
X71197806Y-33900490D01*
X72140663Y-34581442D02*
X72140663Y-34005252D01*
X72140663Y-34005252D02*
X72088282Y-33900490D01*
X72088282Y-33900490D02*
X71983520Y-33848109D01*
X71983520Y-33848109D02*
X71773996Y-33848109D01*
X71773996Y-33848109D02*
X71669234Y-33900490D01*
X72140663Y-34529062D02*
X72035901Y-34581442D01*
X72035901Y-34581442D02*
X71773996Y-34581442D01*
X71773996Y-34581442D02*
X71669234Y-34529062D01*
X71669234Y-34529062D02*
X71616853Y-34424300D01*
X71616853Y-34424300D02*
X71616853Y-34319538D01*
X71616853Y-34319538D02*
X71669234Y-34214776D01*
X71669234Y-34214776D02*
X71773996Y-34162395D01*
X71773996Y-34162395D02*
X72035901Y-34162395D01*
X72035901Y-34162395D02*
X72140663Y-34110014D01*
X72821615Y-34581442D02*
X72716853Y-34529062D01*
X72716853Y-34529062D02*
X72664472Y-34424300D01*
X72664472Y-34424300D02*
X72664472Y-33481442D01*
X74445424Y-34005252D02*
X74078757Y-34005252D01*
X74078757Y-34581442D02*
X74078757Y-33481442D01*
X74078757Y-33481442D02*
X74602567Y-33481442D01*
X75178757Y-34581442D02*
X75073995Y-34529062D01*
X75073995Y-34529062D02*
X75021614Y-34424300D01*
X75021614Y-34424300D02*
X75021614Y-33481442D01*
X75754947Y-34581442D02*
X75650185Y-34529062D01*
X75650185Y-34529062D02*
X75597804Y-34476681D01*
X75597804Y-34476681D02*
X75545423Y-34371919D01*
X75545423Y-34371919D02*
X75545423Y-34057633D01*
X75545423Y-34057633D02*
X75597804Y-33952871D01*
X75597804Y-33952871D02*
X75650185Y-33900490D01*
X75650185Y-33900490D02*
X75754947Y-33848109D01*
X75754947Y-33848109D02*
X75912090Y-33848109D01*
X75912090Y-33848109D02*
X76016852Y-33900490D01*
X76016852Y-33900490D02*
X76069233Y-33952871D01*
X76069233Y-33952871D02*
X76121614Y-34057633D01*
X76121614Y-34057633D02*
X76121614Y-34371919D01*
X76121614Y-34371919D02*
X76069233Y-34476681D01*
X76069233Y-34476681D02*
X76016852Y-34529062D01*
X76016852Y-34529062D02*
X75912090Y-34581442D01*
X75912090Y-34581442D02*
X75754947Y-34581442D01*
X76488280Y-33848109D02*
X76697804Y-34581442D01*
X76697804Y-34581442D02*
X76907328Y-34057633D01*
X76907328Y-34057633D02*
X77116852Y-34581442D01*
X77116852Y-34581442D02*
X77326376Y-33848109D01*
X67373996Y-36300000D02*
X67531139Y-36352380D01*
X67531139Y-36352380D02*
X67793044Y-36352380D01*
X67793044Y-36352380D02*
X67897806Y-36300000D01*
X67897806Y-36300000D02*
X67950187Y-36247619D01*
X67950187Y-36247619D02*
X68002568Y-36142857D01*
X68002568Y-36142857D02*
X68002568Y-36038095D01*
X68002568Y-36038095D02*
X67950187Y-35933333D01*
X67950187Y-35933333D02*
X67897806Y-35880952D01*
X67897806Y-35880952D02*
X67793044Y-35828571D01*
X67793044Y-35828571D02*
X67583520Y-35776190D01*
X67583520Y-35776190D02*
X67478758Y-35723809D01*
X67478758Y-35723809D02*
X67426377Y-35671428D01*
X67426377Y-35671428D02*
X67373996Y-35566666D01*
X67373996Y-35566666D02*
X67373996Y-35461904D01*
X67373996Y-35461904D02*
X67426377Y-35357142D01*
X67426377Y-35357142D02*
X67478758Y-35304761D01*
X67478758Y-35304761D02*
X67583520Y-35252380D01*
X67583520Y-35252380D02*
X67845425Y-35252380D01*
X67845425Y-35252380D02*
X68002568Y-35304761D01*
X68893044Y-36300000D02*
X68788282Y-36352380D01*
X68788282Y-36352380D02*
X68578758Y-36352380D01*
X68578758Y-36352380D02*
X68473996Y-36300000D01*
X68473996Y-36300000D02*
X68421615Y-36195238D01*
X68421615Y-36195238D02*
X68421615Y-35776190D01*
X68421615Y-35776190D02*
X68473996Y-35671428D01*
X68473996Y-35671428D02*
X68578758Y-35619047D01*
X68578758Y-35619047D02*
X68788282Y-35619047D01*
X68788282Y-35619047D02*
X68893044Y-35671428D01*
X68893044Y-35671428D02*
X68945425Y-35776190D01*
X68945425Y-35776190D02*
X68945425Y-35880952D01*
X68945425Y-35880952D02*
X68421615Y-35985714D01*
X69416853Y-35619047D02*
X69416853Y-36352380D01*
X69416853Y-35723809D02*
X69469234Y-35671428D01*
X69469234Y-35671428D02*
X69573996Y-35619047D01*
X69573996Y-35619047D02*
X69731139Y-35619047D01*
X69731139Y-35619047D02*
X69835901Y-35671428D01*
X69835901Y-35671428D02*
X69888282Y-35776190D01*
X69888282Y-35776190D02*
X69888282Y-36352380D01*
X70359710Y-36300000D02*
X70464472Y-36352380D01*
X70464472Y-36352380D02*
X70673996Y-36352380D01*
X70673996Y-36352380D02*
X70778758Y-36300000D01*
X70778758Y-36300000D02*
X70831139Y-36195238D01*
X70831139Y-36195238D02*
X70831139Y-36142857D01*
X70831139Y-36142857D02*
X70778758Y-36038095D01*
X70778758Y-36038095D02*
X70673996Y-35985714D01*
X70673996Y-35985714D02*
X70516853Y-35985714D01*
X70516853Y-35985714D02*
X70412091Y-35933333D01*
X70412091Y-35933333D02*
X70359710Y-35828571D01*
X70359710Y-35828571D02*
X70359710Y-35776190D01*
X70359710Y-35776190D02*
X70412091Y-35671428D01*
X70412091Y-35671428D02*
X70516853Y-35619047D01*
X70516853Y-35619047D02*
X70673996Y-35619047D01*
X70673996Y-35619047D02*
X70778758Y-35671428D01*
X71459710Y-36352380D02*
X71354948Y-36300000D01*
X71354948Y-36300000D02*
X71302567Y-36247619D01*
X71302567Y-36247619D02*
X71250186Y-36142857D01*
X71250186Y-36142857D02*
X71250186Y-35828571D01*
X71250186Y-35828571D02*
X71302567Y-35723809D01*
X71302567Y-35723809D02*
X71354948Y-35671428D01*
X71354948Y-35671428D02*
X71459710Y-35619047D01*
X71459710Y-35619047D02*
X71616853Y-35619047D01*
X71616853Y-35619047D02*
X71721615Y-35671428D01*
X71721615Y-35671428D02*
X71773996Y-35723809D01*
X71773996Y-35723809D02*
X71826377Y-35828571D01*
X71826377Y-35828571D02*
X71826377Y-36142857D01*
X71826377Y-36142857D02*
X71773996Y-36247619D01*
X71773996Y-36247619D02*
X71721615Y-36300000D01*
X71721615Y-36300000D02*
X71616853Y-36352380D01*
X71616853Y-36352380D02*
X71459710Y-36352380D01*
X72297805Y-36352380D02*
X72297805Y-35619047D01*
X72297805Y-35828571D02*
X72350186Y-35723809D01*
X72350186Y-35723809D02*
X72402567Y-35671428D01*
X72402567Y-35671428D02*
X72507329Y-35619047D01*
X72507329Y-35619047D02*
X72612091Y-35619047D01*
X74131138Y-36771428D02*
X74078757Y-36719047D01*
X74078757Y-36719047D02*
X73973995Y-36561904D01*
X73973995Y-36561904D02*
X73921614Y-36457142D01*
X73921614Y-36457142D02*
X73869233Y-36300000D01*
X73869233Y-36300000D02*
X73816852Y-36038095D01*
X73816852Y-36038095D02*
X73816852Y-35828571D01*
X73816852Y-35828571D02*
X73869233Y-35566666D01*
X73869233Y-35566666D02*
X73921614Y-35409523D01*
X73921614Y-35409523D02*
X73973995Y-35304761D01*
X73973995Y-35304761D02*
X74078757Y-35147619D01*
X74078757Y-35147619D02*
X74131138Y-35095238D01*
X74497804Y-36300000D02*
X74654947Y-36352380D01*
X74654947Y-36352380D02*
X74916852Y-36352380D01*
X74916852Y-36352380D02*
X75021614Y-36300000D01*
X75021614Y-36300000D02*
X75073995Y-36247619D01*
X75073995Y-36247619D02*
X75126376Y-36142857D01*
X75126376Y-36142857D02*
X75126376Y-36038095D01*
X75126376Y-36038095D02*
X75073995Y-35933333D01*
X75073995Y-35933333D02*
X75021614Y-35880952D01*
X75021614Y-35880952D02*
X74916852Y-35828571D01*
X74916852Y-35828571D02*
X74707328Y-35776190D01*
X74707328Y-35776190D02*
X74602566Y-35723809D01*
X74602566Y-35723809D02*
X74550185Y-35671428D01*
X74550185Y-35671428D02*
X74497804Y-35566666D01*
X74497804Y-35566666D02*
X74497804Y-35461904D01*
X74497804Y-35461904D02*
X74550185Y-35357142D01*
X74550185Y-35357142D02*
X74602566Y-35304761D01*
X74602566Y-35304761D02*
X74707328Y-35252380D01*
X74707328Y-35252380D02*
X74969233Y-35252380D01*
X74969233Y-35252380D02*
X75126376Y-35304761D01*
X75597804Y-36352380D02*
X75597804Y-35252380D01*
X75597804Y-35252380D02*
X76016852Y-35252380D01*
X76016852Y-35252380D02*
X76121614Y-35304761D01*
X76121614Y-35304761D02*
X76173995Y-35357142D01*
X76173995Y-35357142D02*
X76226376Y-35461904D01*
X76226376Y-35461904D02*
X76226376Y-35619047D01*
X76226376Y-35619047D02*
X76173995Y-35723809D01*
X76173995Y-35723809D02*
X76121614Y-35776190D01*
X76121614Y-35776190D02*
X76016852Y-35828571D01*
X76016852Y-35828571D02*
X75597804Y-35828571D01*
X76697804Y-36352380D02*
X76697804Y-35252380D01*
X77116852Y-36771428D02*
X77169233Y-36719047D01*
X77169233Y-36719047D02*
X77273995Y-36561904D01*
X77273995Y-36561904D02*
X77326376Y-36457142D01*
X77326376Y-36457142D02*
X77378757Y-36300000D01*
X77378757Y-36300000D02*
X77431138Y-36038095D01*
X77431138Y-36038095D02*
X77431138Y-35828571D01*
X77431138Y-35828571D02*
X77378757Y-35566666D01*
X77378757Y-35566666D02*
X77326376Y-35409523D01*
X77326376Y-35409523D02*
X77273995Y-35304761D01*
X77273995Y-35304761D02*
X77169233Y-35147619D01*
X77169233Y-35147619D02*
X77116852Y-35095238D01*
X37283000Y-79106955D02*
X37340142Y-78935527D01*
X37340142Y-78935527D02*
X37340142Y-78649812D01*
X37340142Y-78649812D02*
X37283000Y-78535527D01*
X37283000Y-78535527D02*
X37225857Y-78478384D01*
X37225857Y-78478384D02*
X37111571Y-78421241D01*
X37111571Y-78421241D02*
X36997285Y-78421241D01*
X36997285Y-78421241D02*
X36883000Y-78478384D01*
X36883000Y-78478384D02*
X36825857Y-78535527D01*
X36825857Y-78535527D02*
X36768714Y-78649812D01*
X36768714Y-78649812D02*
X36711571Y-78878384D01*
X36711571Y-78878384D02*
X36654428Y-78992669D01*
X36654428Y-78992669D02*
X36597285Y-79049812D01*
X36597285Y-79049812D02*
X36483000Y-79106955D01*
X36483000Y-79106955D02*
X36368714Y-79106955D01*
X36368714Y-79106955D02*
X36254428Y-79049812D01*
X36254428Y-79049812D02*
X36197285Y-78992669D01*
X36197285Y-78992669D02*
X36140142Y-78878384D01*
X36140142Y-78878384D02*
X36140142Y-78592669D01*
X36140142Y-78592669D02*
X36197285Y-78421241D01*
X36140142Y-78021241D02*
X37340142Y-77735527D01*
X37340142Y-77735527D02*
X36483000Y-77506955D01*
X36483000Y-77506955D02*
X37340142Y-77278384D01*
X37340142Y-77278384D02*
X36140142Y-76992670D01*
X37340142Y-76535526D02*
X36140142Y-76535526D01*
X36140142Y-76535526D02*
X36140142Y-76249812D01*
X36140142Y-76249812D02*
X36197285Y-76078383D01*
X36197285Y-76078383D02*
X36311571Y-75964098D01*
X36311571Y-75964098D02*
X36425857Y-75906955D01*
X36425857Y-75906955D02*
X36654428Y-75849812D01*
X36654428Y-75849812D02*
X36825857Y-75849812D01*
X36825857Y-75849812D02*
X37054428Y-75906955D01*
X37054428Y-75906955D02*
X37168714Y-75964098D01*
X37168714Y-75964098D02*
X37283000Y-76078383D01*
X37283000Y-76078383D02*
X37340142Y-76249812D01*
X37340142Y-76249812D02*
X37340142Y-76535526D01*
D12*
X53345112Y-68196009D02*
X53487969Y-68243628D01*
X53487969Y-68243628D02*
X53535588Y-68291247D01*
X53535588Y-68291247D02*
X53583207Y-68386485D01*
X53583207Y-68386485D02*
X53583207Y-68529342D01*
X53583207Y-68529342D02*
X53535588Y-68624580D01*
X53535588Y-68624580D02*
X53487969Y-68672200D01*
X53487969Y-68672200D02*
X53392731Y-68719819D01*
X53392731Y-68719819D02*
X53011779Y-68719819D01*
X53011779Y-68719819D02*
X53011779Y-67719819D01*
X53011779Y-67719819D02*
X53345112Y-67719819D01*
X53345112Y-67719819D02*
X53440350Y-67767438D01*
X53440350Y-67767438D02*
X53487969Y-67815057D01*
X53487969Y-67815057D02*
X53535588Y-67910295D01*
X53535588Y-67910295D02*
X53535588Y-68005533D01*
X53535588Y-68005533D02*
X53487969Y-68100771D01*
X53487969Y-68100771D02*
X53440350Y-68148390D01*
X53440350Y-68148390D02*
X53345112Y-68196009D01*
X53345112Y-68196009D02*
X53011779Y-68196009D01*
X54202255Y-67719819D02*
X54392731Y-67719819D01*
X54392731Y-67719819D02*
X54487969Y-67767438D01*
X54487969Y-67767438D02*
X54583207Y-67862676D01*
X54583207Y-67862676D02*
X54630826Y-68053152D01*
X54630826Y-68053152D02*
X54630826Y-68386485D01*
X54630826Y-68386485D02*
X54583207Y-68576961D01*
X54583207Y-68576961D02*
X54487969Y-68672200D01*
X54487969Y-68672200D02*
X54392731Y-68719819D01*
X54392731Y-68719819D02*
X54202255Y-68719819D01*
X54202255Y-68719819D02*
X54107017Y-68672200D01*
X54107017Y-68672200D02*
X54011779Y-68576961D01*
X54011779Y-68576961D02*
X53964160Y-68386485D01*
X53964160Y-68386485D02*
X53964160Y-68053152D01*
X53964160Y-68053152D02*
X54011779Y-67862676D01*
X54011779Y-67862676D02*
X54107017Y-67767438D01*
X54107017Y-67767438D02*
X54202255Y-67719819D01*
X55249874Y-67719819D02*
X55440350Y-67719819D01*
X55440350Y-67719819D02*
X55535588Y-67767438D01*
X55535588Y-67767438D02*
X55630826Y-67862676D01*
X55630826Y-67862676D02*
X55678445Y-68053152D01*
X55678445Y-68053152D02*
X55678445Y-68386485D01*
X55678445Y-68386485D02*
X55630826Y-68576961D01*
X55630826Y-68576961D02*
X55535588Y-68672200D01*
X55535588Y-68672200D02*
X55440350Y-68719819D01*
X55440350Y-68719819D02*
X55249874Y-68719819D01*
X55249874Y-68719819D02*
X55154636Y-68672200D01*
X55154636Y-68672200D02*
X55059398Y-68576961D01*
X55059398Y-68576961D02*
X55011779Y-68386485D01*
X55011779Y-68386485D02*
X55011779Y-68053152D01*
X55011779Y-68053152D02*
X55059398Y-67862676D01*
X55059398Y-67862676D02*
X55154636Y-67767438D01*
X55154636Y-67767438D02*
X55249874Y-67719819D01*
X55964160Y-67719819D02*
X56535588Y-67719819D01*
X56249874Y-68719819D02*
X56249874Y-67719819D01*
D13*
X72640142Y-68549812D02*
X73611571Y-68549812D01*
X73611571Y-68549812D02*
X73725857Y-68492669D01*
X73725857Y-68492669D02*
X73783000Y-68435527D01*
X73783000Y-68435527D02*
X73840142Y-68321241D01*
X73840142Y-68321241D02*
X73840142Y-68092669D01*
X73840142Y-68092669D02*
X73783000Y-67978384D01*
X73783000Y-67978384D02*
X73725857Y-67921241D01*
X73725857Y-67921241D02*
X73611571Y-67864098D01*
X73611571Y-67864098D02*
X72640142Y-67864098D01*
X73497285Y-67349812D02*
X73497285Y-66778384D01*
X73840142Y-67464098D02*
X72640142Y-67064098D01*
X72640142Y-67064098D02*
X73840142Y-66664098D01*
X73840142Y-65578384D02*
X73268714Y-65978384D01*
X73840142Y-66264098D02*
X72640142Y-66264098D01*
X72640142Y-66264098D02*
X72640142Y-65806955D01*
X72640142Y-65806955D02*
X72697285Y-65692670D01*
X72697285Y-65692670D02*
X72754428Y-65635527D01*
X72754428Y-65635527D02*
X72868714Y-65578384D01*
X72868714Y-65578384D02*
X73040142Y-65578384D01*
X73040142Y-65578384D02*
X73154428Y-65635527D01*
X73154428Y-65635527D02*
X73211571Y-65692670D01*
X73211571Y-65692670D02*
X73268714Y-65806955D01*
X73268714Y-65806955D02*
X73268714Y-66264098D01*
X72640142Y-65235527D02*
X72640142Y-64549813D01*
X73840142Y-64892670D02*
X72640142Y-64892670D01*
D12*
X43670112Y-29346009D02*
X43812969Y-29393628D01*
X43812969Y-29393628D02*
X43860588Y-29441247D01*
X43860588Y-29441247D02*
X43908207Y-29536485D01*
X43908207Y-29536485D02*
X43908207Y-29679342D01*
X43908207Y-29679342D02*
X43860588Y-29774580D01*
X43860588Y-29774580D02*
X43812969Y-29822200D01*
X43812969Y-29822200D02*
X43717731Y-29869819D01*
X43717731Y-29869819D02*
X43336779Y-29869819D01*
X43336779Y-29869819D02*
X43336779Y-28869819D01*
X43336779Y-28869819D02*
X43670112Y-28869819D01*
X43670112Y-28869819D02*
X43765350Y-28917438D01*
X43765350Y-28917438D02*
X43812969Y-28965057D01*
X43812969Y-28965057D02*
X43860588Y-29060295D01*
X43860588Y-29060295D02*
X43860588Y-29155533D01*
X43860588Y-29155533D02*
X43812969Y-29250771D01*
X43812969Y-29250771D02*
X43765350Y-29298390D01*
X43765350Y-29298390D02*
X43670112Y-29346009D01*
X43670112Y-29346009D02*
X43336779Y-29346009D01*
X44336779Y-29869819D02*
X44336779Y-28869819D01*
X44336779Y-28869819D02*
X44908207Y-29869819D01*
X44908207Y-29869819D02*
X44908207Y-28869819D01*
X45574874Y-28869819D02*
X45765350Y-28869819D01*
X45765350Y-28869819D02*
X45860588Y-28917438D01*
X45860588Y-28917438D02*
X45955826Y-29012676D01*
X45955826Y-29012676D02*
X46003445Y-29203152D01*
X46003445Y-29203152D02*
X46003445Y-29536485D01*
X46003445Y-29536485D02*
X45955826Y-29726961D01*
X45955826Y-29726961D02*
X45860588Y-29822200D01*
X45860588Y-29822200D02*
X45765350Y-29869819D01*
X45765350Y-29869819D02*
X45574874Y-29869819D01*
X45574874Y-29869819D02*
X45479636Y-29822200D01*
X45479636Y-29822200D02*
X45384398Y-29726961D01*
X45384398Y-29726961D02*
X45336779Y-29536485D01*
X45336779Y-29536485D02*
X45336779Y-29203152D01*
X45336779Y-29203152D02*
X45384398Y-29012676D01*
X45384398Y-29012676D02*
X45479636Y-28917438D01*
X45479636Y-28917438D02*
X45574874Y-28869819D01*
X46622493Y-28869819D02*
X46717731Y-28869819D01*
X46717731Y-28869819D02*
X46812969Y-28917438D01*
X46812969Y-28917438D02*
X46860588Y-28965057D01*
X46860588Y-28965057D02*
X46908207Y-29060295D01*
X46908207Y-29060295D02*
X46955826Y-29250771D01*
X46955826Y-29250771D02*
X46955826Y-29488866D01*
X46955826Y-29488866D02*
X46908207Y-29679342D01*
X46908207Y-29679342D02*
X46860588Y-29774580D01*
X46860588Y-29774580D02*
X46812969Y-29822200D01*
X46812969Y-29822200D02*
X46717731Y-29869819D01*
X46717731Y-29869819D02*
X46622493Y-29869819D01*
X46622493Y-29869819D02*
X46527255Y-29822200D01*
X46527255Y-29822200D02*
X46479636Y-29774580D01*
X46479636Y-29774580D02*
X46432017Y-29679342D01*
X46432017Y-29679342D02*
X46384398Y-29488866D01*
X46384398Y-29488866D02*
X46384398Y-29250771D01*
X46384398Y-29250771D02*
X46432017Y-29060295D01*
X46432017Y-29060295D02*
X46479636Y-28965057D01*
X46479636Y-28965057D02*
X46527255Y-28917438D01*
X46527255Y-28917438D02*
X46622493Y-28869819D01*
X47527255Y-29298390D02*
X47432017Y-29250771D01*
X47432017Y-29250771D02*
X47384398Y-29203152D01*
X47384398Y-29203152D02*
X47336779Y-29107914D01*
X47336779Y-29107914D02*
X47336779Y-29060295D01*
X47336779Y-29060295D02*
X47384398Y-28965057D01*
X47384398Y-28965057D02*
X47432017Y-28917438D01*
X47432017Y-28917438D02*
X47527255Y-28869819D01*
X47527255Y-28869819D02*
X47717731Y-28869819D01*
X47717731Y-28869819D02*
X47812969Y-28917438D01*
X47812969Y-28917438D02*
X47860588Y-28965057D01*
X47860588Y-28965057D02*
X47908207Y-29060295D01*
X47908207Y-29060295D02*
X47908207Y-29107914D01*
X47908207Y-29107914D02*
X47860588Y-29203152D01*
X47860588Y-29203152D02*
X47812969Y-29250771D01*
X47812969Y-29250771D02*
X47717731Y-29298390D01*
X47717731Y-29298390D02*
X47527255Y-29298390D01*
X47527255Y-29298390D02*
X47432017Y-29346009D01*
X47432017Y-29346009D02*
X47384398Y-29393628D01*
X47384398Y-29393628D02*
X47336779Y-29488866D01*
X47336779Y-29488866D02*
X47336779Y-29679342D01*
X47336779Y-29679342D02*
X47384398Y-29774580D01*
X47384398Y-29774580D02*
X47432017Y-29822200D01*
X47432017Y-29822200D02*
X47527255Y-29869819D01*
X47527255Y-29869819D02*
X47717731Y-29869819D01*
X47717731Y-29869819D02*
X47812969Y-29822200D01*
X47812969Y-29822200D02*
X47860588Y-29774580D01*
X47860588Y-29774580D02*
X47908207Y-29679342D01*
X47908207Y-29679342D02*
X47908207Y-29488866D01*
X47908207Y-29488866D02*
X47860588Y-29393628D01*
X47860588Y-29393628D02*
X47812969Y-29346009D01*
X47812969Y-29346009D02*
X47717731Y-29298390D01*
X48765350Y-28869819D02*
X48574874Y-28869819D01*
X48574874Y-28869819D02*
X48479636Y-28917438D01*
X48479636Y-28917438D02*
X48432017Y-28965057D01*
X48432017Y-28965057D02*
X48336779Y-29107914D01*
X48336779Y-29107914D02*
X48289160Y-29298390D01*
X48289160Y-29298390D02*
X48289160Y-29679342D01*
X48289160Y-29679342D02*
X48336779Y-29774580D01*
X48336779Y-29774580D02*
X48384398Y-29822200D01*
X48384398Y-29822200D02*
X48479636Y-29869819D01*
X48479636Y-29869819D02*
X48670112Y-29869819D01*
X48670112Y-29869819D02*
X48765350Y-29822200D01*
X48765350Y-29822200D02*
X48812969Y-29774580D01*
X48812969Y-29774580D02*
X48860588Y-29679342D01*
X48860588Y-29679342D02*
X48860588Y-29441247D01*
X48860588Y-29441247D02*
X48812969Y-29346009D01*
X48812969Y-29346009D02*
X48765350Y-29298390D01*
X48765350Y-29298390D02*
X48670112Y-29250771D01*
X48670112Y-29250771D02*
X48479636Y-29250771D01*
X48479636Y-29250771D02*
X48384398Y-29298390D01*
X48384398Y-29298390D02*
X48336779Y-29346009D01*
X48336779Y-29346009D02*
X48289160Y-29441247D01*
X28336779Y-65869819D02*
X28336779Y-64869819D01*
X29384397Y-65774580D02*
X29336778Y-65822200D01*
X29336778Y-65822200D02*
X29193921Y-65869819D01*
X29193921Y-65869819D02*
X29098683Y-65869819D01*
X29098683Y-65869819D02*
X28955826Y-65822200D01*
X28955826Y-65822200D02*
X28860588Y-65726961D01*
X28860588Y-65726961D02*
X28812969Y-65631723D01*
X28812969Y-65631723D02*
X28765350Y-65441247D01*
X28765350Y-65441247D02*
X28765350Y-65298390D01*
X28765350Y-65298390D02*
X28812969Y-65107914D01*
X28812969Y-65107914D02*
X28860588Y-65012676D01*
X28860588Y-65012676D02*
X28955826Y-64917438D01*
X28955826Y-64917438D02*
X29098683Y-64869819D01*
X29098683Y-64869819D02*
X29193921Y-64869819D01*
X29193921Y-64869819D02*
X29336778Y-64917438D01*
X29336778Y-64917438D02*
X29384397Y-64965057D01*
X29812969Y-65869819D02*
X29812969Y-64869819D01*
X29812969Y-64869819D02*
X30146302Y-65584104D01*
X30146302Y-65584104D02*
X30479635Y-64869819D01*
X30479635Y-64869819D02*
X30479635Y-65869819D01*
X30955826Y-65488866D02*
X31717731Y-65488866D01*
X32622492Y-65203152D02*
X32622492Y-65869819D01*
X32384397Y-64822200D02*
X32146302Y-65536485D01*
X32146302Y-65536485D02*
X32765349Y-65536485D01*
X33098683Y-64965057D02*
X33146302Y-64917438D01*
X33146302Y-64917438D02*
X33241540Y-64869819D01*
X33241540Y-64869819D02*
X33479635Y-64869819D01*
X33479635Y-64869819D02*
X33574873Y-64917438D01*
X33574873Y-64917438D02*
X33622492Y-64965057D01*
X33622492Y-64965057D02*
X33670111Y-65060295D01*
X33670111Y-65060295D02*
X33670111Y-65155533D01*
X33670111Y-65155533D02*
X33622492Y-65298390D01*
X33622492Y-65298390D02*
X33051064Y-65869819D01*
X33051064Y-65869819D02*
X33670111Y-65869819D01*
X34527254Y-64869819D02*
X34336778Y-64869819D01*
X34336778Y-64869819D02*
X34241540Y-64917438D01*
X34241540Y-64917438D02*
X34193921Y-64965057D01*
X34193921Y-64965057D02*
X34098683Y-65107914D01*
X34098683Y-65107914D02*
X34051064Y-65298390D01*
X34051064Y-65298390D02*
X34051064Y-65679342D01*
X34051064Y-65679342D02*
X34098683Y-65774580D01*
X34098683Y-65774580D02*
X34146302Y-65822200D01*
X34146302Y-65822200D02*
X34241540Y-65869819D01*
X34241540Y-65869819D02*
X34432016Y-65869819D01*
X34432016Y-65869819D02*
X34527254Y-65822200D01*
X34527254Y-65822200D02*
X34574873Y-65774580D01*
X34574873Y-65774580D02*
X34622492Y-65679342D01*
X34622492Y-65679342D02*
X34622492Y-65441247D01*
X34622492Y-65441247D02*
X34574873Y-65346009D01*
X34574873Y-65346009D02*
X34527254Y-65298390D01*
X34527254Y-65298390D02*
X34432016Y-65250771D01*
X34432016Y-65250771D02*
X34241540Y-65250771D01*
X34241540Y-65250771D02*
X34146302Y-65298390D01*
X34146302Y-65298390D02*
X34098683Y-65346009D01*
X34098683Y-65346009D02*
X34051064Y-65441247D01*
X35193921Y-65298390D02*
X35098683Y-65250771D01*
X35098683Y-65250771D02*
X35051064Y-65203152D01*
X35051064Y-65203152D02*
X35003445Y-65107914D01*
X35003445Y-65107914D02*
X35003445Y-65060295D01*
X35003445Y-65060295D02*
X35051064Y-64965057D01*
X35051064Y-64965057D02*
X35098683Y-64917438D01*
X35098683Y-64917438D02*
X35193921Y-64869819D01*
X35193921Y-64869819D02*
X35384397Y-64869819D01*
X35384397Y-64869819D02*
X35479635Y-64917438D01*
X35479635Y-64917438D02*
X35527254Y-64965057D01*
X35527254Y-64965057D02*
X35574873Y-65060295D01*
X35574873Y-65060295D02*
X35574873Y-65107914D01*
X35574873Y-65107914D02*
X35527254Y-65203152D01*
X35527254Y-65203152D02*
X35479635Y-65250771D01*
X35479635Y-65250771D02*
X35384397Y-65298390D01*
X35384397Y-65298390D02*
X35193921Y-65298390D01*
X35193921Y-65298390D02*
X35098683Y-65346009D01*
X35098683Y-65346009D02*
X35051064Y-65393628D01*
X35051064Y-65393628D02*
X35003445Y-65488866D01*
X35003445Y-65488866D02*
X35003445Y-65679342D01*
X35003445Y-65679342D02*
X35051064Y-65774580D01*
X35051064Y-65774580D02*
X35098683Y-65822200D01*
X35098683Y-65822200D02*
X35193921Y-65869819D01*
X35193921Y-65869819D02*
X35384397Y-65869819D01*
X35384397Y-65869819D02*
X35479635Y-65822200D01*
X35479635Y-65822200D02*
X35527254Y-65774580D01*
X35527254Y-65774580D02*
X35574873Y-65679342D01*
X35574873Y-65679342D02*
X35574873Y-65488866D01*
X35574873Y-65488866D02*
X35527254Y-65393628D01*
X35527254Y-65393628D02*
X35479635Y-65346009D01*
X35479635Y-65346009D02*
X35384397Y-65298390D01*
X36146302Y-65298390D02*
X36051064Y-65250771D01*
X36051064Y-65250771D02*
X36003445Y-65203152D01*
X36003445Y-65203152D02*
X35955826Y-65107914D01*
X35955826Y-65107914D02*
X35955826Y-65060295D01*
X35955826Y-65060295D02*
X36003445Y-64965057D01*
X36003445Y-64965057D02*
X36051064Y-64917438D01*
X36051064Y-64917438D02*
X36146302Y-64869819D01*
X36146302Y-64869819D02*
X36336778Y-64869819D01*
X36336778Y-64869819D02*
X36432016Y-64917438D01*
X36432016Y-64917438D02*
X36479635Y-64965057D01*
X36479635Y-64965057D02*
X36527254Y-65060295D01*
X36527254Y-65060295D02*
X36527254Y-65107914D01*
X36527254Y-65107914D02*
X36479635Y-65203152D01*
X36479635Y-65203152D02*
X36432016Y-65250771D01*
X36432016Y-65250771D02*
X36336778Y-65298390D01*
X36336778Y-65298390D02*
X36146302Y-65298390D01*
X36146302Y-65298390D02*
X36051064Y-65346009D01*
X36051064Y-65346009D02*
X36003445Y-65393628D01*
X36003445Y-65393628D02*
X35955826Y-65488866D01*
X35955826Y-65488866D02*
X35955826Y-65679342D01*
X35955826Y-65679342D02*
X36003445Y-65774580D01*
X36003445Y-65774580D02*
X36051064Y-65822200D01*
X36051064Y-65822200D02*
X36146302Y-65869819D01*
X36146302Y-65869819D02*
X36336778Y-65869819D01*
X36336778Y-65869819D02*
X36432016Y-65822200D01*
X36432016Y-65822200D02*
X36479635Y-65774580D01*
X36479635Y-65774580D02*
X36527254Y-65679342D01*
X36527254Y-65679342D02*
X36527254Y-65488866D01*
X36527254Y-65488866D02*
X36479635Y-65393628D01*
X36479635Y-65393628D02*
X36432016Y-65346009D01*
X36432016Y-65346009D02*
X36336778Y-65298390D01*
X36955826Y-65488866D02*
X37717731Y-65488866D01*
X38193921Y-65869819D02*
X38193921Y-64869819D01*
X38193921Y-64869819D02*
X38574873Y-64869819D01*
X38574873Y-64869819D02*
X38670111Y-64917438D01*
X38670111Y-64917438D02*
X38717730Y-64965057D01*
X38717730Y-64965057D02*
X38765349Y-65060295D01*
X38765349Y-65060295D02*
X38765349Y-65203152D01*
X38765349Y-65203152D02*
X38717730Y-65298390D01*
X38717730Y-65298390D02*
X38670111Y-65346009D01*
X38670111Y-65346009D02*
X38574873Y-65393628D01*
X38574873Y-65393628D02*
X38193921Y-65393628D01*
X34336779Y-67988866D02*
X35098684Y-67988866D01*
X34717731Y-68369819D02*
X34717731Y-67607914D01*
X35479636Y-68369819D02*
X36003445Y-67703152D01*
X35479636Y-67703152D02*
X36003445Y-68369819D01*
X63478628Y-76728571D02*
X63954819Y-76728571D01*
X62954819Y-77061904D02*
X63478628Y-76728571D01*
X63478628Y-76728571D02*
X62954819Y-76395238D01*
X62954819Y-75585714D02*
X62954819Y-76061904D01*
X62954819Y-76061904D02*
X63431009Y-76109523D01*
X63431009Y-76109523D02*
X63383390Y-76061904D01*
X63383390Y-76061904D02*
X63335771Y-75966666D01*
X63335771Y-75966666D02*
X63335771Y-75728571D01*
X63335771Y-75728571D02*
X63383390Y-75633333D01*
X63383390Y-75633333D02*
X63431009Y-75585714D01*
X63431009Y-75585714D02*
X63526247Y-75538095D01*
X63526247Y-75538095D02*
X63764342Y-75538095D01*
X63764342Y-75538095D02*
X63859580Y-75585714D01*
X63859580Y-75585714D02*
X63907200Y-75633333D01*
X63907200Y-75633333D02*
X63954819Y-75728571D01*
X63954819Y-75728571D02*
X63954819Y-75966666D01*
X63954819Y-75966666D02*
X63907200Y-76061904D01*
X63907200Y-76061904D02*
X63859580Y-76109523D01*
X62954819Y-74919047D02*
X62954819Y-74823809D01*
X62954819Y-74823809D02*
X63002438Y-74728571D01*
X63002438Y-74728571D02*
X63050057Y-74680952D01*
X63050057Y-74680952D02*
X63145295Y-74633333D01*
X63145295Y-74633333D02*
X63335771Y-74585714D01*
X63335771Y-74585714D02*
X63573866Y-74585714D01*
X63573866Y-74585714D02*
X63764342Y-74633333D01*
X63764342Y-74633333D02*
X63859580Y-74680952D01*
X63859580Y-74680952D02*
X63907200Y-74728571D01*
X63907200Y-74728571D02*
X63954819Y-74823809D01*
X63954819Y-74823809D02*
X63954819Y-74919047D01*
X63954819Y-74919047D02*
X63907200Y-75014285D01*
X63907200Y-75014285D02*
X63859580Y-75061904D01*
X63859580Y-75061904D02*
X63764342Y-75109523D01*
X63764342Y-75109523D02*
X63573866Y-75157142D01*
X63573866Y-75157142D02*
X63335771Y-75157142D01*
X63335771Y-75157142D02*
X63145295Y-75109523D01*
X63145295Y-75109523D02*
X63050057Y-75061904D01*
X63050057Y-75061904D02*
X63002438Y-75014285D01*
X63002438Y-75014285D02*
X62954819Y-74919047D01*
X63954819Y-73633333D02*
X63954819Y-74204761D01*
X63954819Y-73919047D02*
X62954819Y-73919047D01*
X62954819Y-73919047D02*
X63097676Y-74014285D01*
X63097676Y-74014285D02*
X63192914Y-74109523D01*
X63192914Y-74109523D02*
X63240533Y-74204761D01*
X59535714Y-48454819D02*
X59535714Y-49264342D01*
X59535714Y-49264342D02*
X59583333Y-49359580D01*
X59583333Y-49359580D02*
X59630952Y-49407200D01*
X59630952Y-49407200D02*
X59726190Y-49454819D01*
X59726190Y-49454819D02*
X59916666Y-49454819D01*
X59916666Y-49454819D02*
X60011904Y-49407200D01*
X60011904Y-49407200D02*
X60059523Y-49359580D01*
X60059523Y-49359580D02*
X60107142Y-49264342D01*
X60107142Y-49264342D02*
X60107142Y-48454819D01*
X60535714Y-48550057D02*
X60583333Y-48502438D01*
X60583333Y-48502438D02*
X60678571Y-48454819D01*
X60678571Y-48454819D02*
X60916666Y-48454819D01*
X60916666Y-48454819D02*
X61011904Y-48502438D01*
X61011904Y-48502438D02*
X61059523Y-48550057D01*
X61059523Y-48550057D02*
X61107142Y-48645295D01*
X61107142Y-48645295D02*
X61107142Y-48740533D01*
X61107142Y-48740533D02*
X61059523Y-48883390D01*
X61059523Y-48883390D02*
X60488095Y-49454819D01*
X60488095Y-49454819D02*
X61107142Y-49454819D01*
X61726190Y-48454819D02*
X61821428Y-48454819D01*
X61821428Y-48454819D02*
X61916666Y-48502438D01*
X61916666Y-48502438D02*
X61964285Y-48550057D01*
X61964285Y-48550057D02*
X62011904Y-48645295D01*
X62011904Y-48645295D02*
X62059523Y-48835771D01*
X62059523Y-48835771D02*
X62059523Y-49073866D01*
X62059523Y-49073866D02*
X62011904Y-49264342D01*
X62011904Y-49264342D02*
X61964285Y-49359580D01*
X61964285Y-49359580D02*
X61916666Y-49407200D01*
X61916666Y-49407200D02*
X61821428Y-49454819D01*
X61821428Y-49454819D02*
X61726190Y-49454819D01*
X61726190Y-49454819D02*
X61630952Y-49407200D01*
X61630952Y-49407200D02*
X61583333Y-49359580D01*
X61583333Y-49359580D02*
X61535714Y-49264342D01*
X61535714Y-49264342D02*
X61488095Y-49073866D01*
X61488095Y-49073866D02*
X61488095Y-48835771D01*
X61488095Y-48835771D02*
X61535714Y-48645295D01*
X61535714Y-48645295D02*
X61583333Y-48550057D01*
X61583333Y-48550057D02*
X61630952Y-48502438D01*
X61630952Y-48502438D02*
X61726190Y-48454819D01*
X63011904Y-49454819D02*
X62440476Y-49454819D01*
X62726190Y-49454819D02*
X62726190Y-48454819D01*
X62726190Y-48454819D02*
X62630952Y-48597676D01*
X62630952Y-48597676D02*
X62535714Y-48692914D01*
X62535714Y-48692914D02*
X62440476Y-48740533D01*
X35795180Y-53214285D02*
X35080895Y-53214285D01*
X35080895Y-53214285D02*
X34938038Y-53166666D01*
X34938038Y-53166666D02*
X34842800Y-53071428D01*
X34842800Y-53071428D02*
X34795180Y-52928571D01*
X34795180Y-52928571D02*
X34795180Y-52833333D01*
X34795180Y-54214285D02*
X34795180Y-53642857D01*
X34795180Y-53928571D02*
X35795180Y-53928571D01*
X35795180Y-53928571D02*
X35652323Y-53833333D01*
X35652323Y-53833333D02*
X35557085Y-53738095D01*
X35557085Y-53738095D02*
X35509466Y-53642857D01*
X35795180Y-54833333D02*
X35795180Y-54928571D01*
X35795180Y-54928571D02*
X35747561Y-55023809D01*
X35747561Y-55023809D02*
X35699942Y-55071428D01*
X35699942Y-55071428D02*
X35604704Y-55119047D01*
X35604704Y-55119047D02*
X35414228Y-55166666D01*
X35414228Y-55166666D02*
X35176133Y-55166666D01*
X35176133Y-55166666D02*
X34985657Y-55119047D01*
X34985657Y-55119047D02*
X34890419Y-55071428D01*
X34890419Y-55071428D02*
X34842800Y-55023809D01*
X34842800Y-55023809D02*
X34795180Y-54928571D01*
X34795180Y-54928571D02*
X34795180Y-54833333D01*
X34795180Y-54833333D02*
X34842800Y-54738095D01*
X34842800Y-54738095D02*
X34890419Y-54690476D01*
X34890419Y-54690476D02*
X34985657Y-54642857D01*
X34985657Y-54642857D02*
X35176133Y-54595238D01*
X35176133Y-54595238D02*
X35414228Y-54595238D01*
X35414228Y-54595238D02*
X35604704Y-54642857D01*
X35604704Y-54642857D02*
X35699942Y-54690476D01*
X35699942Y-54690476D02*
X35747561Y-54738095D01*
X35747561Y-54738095D02*
X35795180Y-54833333D01*
X34795180Y-56119047D02*
X34795180Y-55547619D01*
X34795180Y-55833333D02*
X35795180Y-55833333D01*
X35795180Y-55833333D02*
X35652323Y-55738095D01*
X35652323Y-55738095D02*
X35557085Y-55642857D01*
X35557085Y-55642857D02*
X35509466Y-55547619D01*
X51801428Y-30618628D02*
X51801428Y-31094819D01*
X51468095Y-30094819D02*
X51801428Y-30618628D01*
X51801428Y-30618628D02*
X52134761Y-30094819D01*
X52896666Y-30428152D02*
X52896666Y-31094819D01*
X52658571Y-30047200D02*
X52420476Y-30761485D01*
X52420476Y-30761485D02*
X53039523Y-30761485D01*
X53610952Y-30094819D02*
X53706190Y-30094819D01*
X53706190Y-30094819D02*
X53801428Y-30142438D01*
X53801428Y-30142438D02*
X53849047Y-30190057D01*
X53849047Y-30190057D02*
X53896666Y-30285295D01*
X53896666Y-30285295D02*
X53944285Y-30475771D01*
X53944285Y-30475771D02*
X53944285Y-30713866D01*
X53944285Y-30713866D02*
X53896666Y-30904342D01*
X53896666Y-30904342D02*
X53849047Y-30999580D01*
X53849047Y-30999580D02*
X53801428Y-31047200D01*
X53801428Y-31047200D02*
X53706190Y-31094819D01*
X53706190Y-31094819D02*
X53610952Y-31094819D01*
X53610952Y-31094819D02*
X53515714Y-31047200D01*
X53515714Y-31047200D02*
X53468095Y-30999580D01*
X53468095Y-30999580D02*
X53420476Y-30904342D01*
X53420476Y-30904342D02*
X53372857Y-30713866D01*
X53372857Y-30713866D02*
X53372857Y-30475771D01*
X53372857Y-30475771D02*
X53420476Y-30285295D01*
X53420476Y-30285295D02*
X53468095Y-30190057D01*
X53468095Y-30190057D02*
X53515714Y-30142438D01*
X53515714Y-30142438D02*
X53610952Y-30094819D01*
X54896666Y-31094819D02*
X54325238Y-31094819D01*
X54610952Y-31094819D02*
X54610952Y-30094819D01*
X54610952Y-30094819D02*
X54515714Y-30237676D01*
X54515714Y-30237676D02*
X54420476Y-30332914D01*
X54420476Y-30332914D02*
X54325238Y-30380533D01*
X72228628Y-58328571D02*
X72704819Y-58328571D01*
X71704819Y-58661904D02*
X72228628Y-58328571D01*
X72228628Y-58328571D02*
X71704819Y-57995238D01*
X71800057Y-57709523D02*
X71752438Y-57661904D01*
X71752438Y-57661904D02*
X71704819Y-57566666D01*
X71704819Y-57566666D02*
X71704819Y-57328571D01*
X71704819Y-57328571D02*
X71752438Y-57233333D01*
X71752438Y-57233333D02*
X71800057Y-57185714D01*
X71800057Y-57185714D02*
X71895295Y-57138095D01*
X71895295Y-57138095D02*
X71990533Y-57138095D01*
X71990533Y-57138095D02*
X72133390Y-57185714D01*
X72133390Y-57185714D02*
X72704819Y-57757142D01*
X72704819Y-57757142D02*
X72704819Y-57138095D01*
X71704819Y-56519047D02*
X71704819Y-56423809D01*
X71704819Y-56423809D02*
X71752438Y-56328571D01*
X71752438Y-56328571D02*
X71800057Y-56280952D01*
X71800057Y-56280952D02*
X71895295Y-56233333D01*
X71895295Y-56233333D02*
X72085771Y-56185714D01*
X72085771Y-56185714D02*
X72323866Y-56185714D01*
X72323866Y-56185714D02*
X72514342Y-56233333D01*
X72514342Y-56233333D02*
X72609580Y-56280952D01*
X72609580Y-56280952D02*
X72657200Y-56328571D01*
X72657200Y-56328571D02*
X72704819Y-56423809D01*
X72704819Y-56423809D02*
X72704819Y-56519047D01*
X72704819Y-56519047D02*
X72657200Y-56614285D01*
X72657200Y-56614285D02*
X72609580Y-56661904D01*
X72609580Y-56661904D02*
X72514342Y-56709523D01*
X72514342Y-56709523D02*
X72323866Y-56757142D01*
X72323866Y-56757142D02*
X72085771Y-56757142D01*
X72085771Y-56757142D02*
X71895295Y-56709523D01*
X71895295Y-56709523D02*
X71800057Y-56661904D01*
X71800057Y-56661904D02*
X71752438Y-56614285D01*
X71752438Y-56614285D02*
X71704819Y-56519047D01*
X71800057Y-55804761D02*
X71752438Y-55757142D01*
X71752438Y-55757142D02*
X71704819Y-55661904D01*
X71704819Y-55661904D02*
X71704819Y-55423809D01*
X71704819Y-55423809D02*
X71752438Y-55328571D01*
X71752438Y-55328571D02*
X71800057Y-55280952D01*
X71800057Y-55280952D02*
X71895295Y-55233333D01*
X71895295Y-55233333D02*
X71990533Y-55233333D01*
X71990533Y-55233333D02*
X72133390Y-55280952D01*
X72133390Y-55280952D02*
X72704819Y-55852380D01*
X72704819Y-55852380D02*
X72704819Y-55233333D01*
X56885714Y-34754819D02*
X56885714Y-35564342D01*
X56885714Y-35564342D02*
X56933333Y-35659580D01*
X56933333Y-35659580D02*
X56980952Y-35707200D01*
X56980952Y-35707200D02*
X57076190Y-35754819D01*
X57076190Y-35754819D02*
X57266666Y-35754819D01*
X57266666Y-35754819D02*
X57361904Y-35707200D01*
X57361904Y-35707200D02*
X57409523Y-35659580D01*
X57409523Y-35659580D02*
X57457142Y-35564342D01*
X57457142Y-35564342D02*
X57457142Y-34754819D01*
X58361904Y-35088152D02*
X58361904Y-35754819D01*
X58123809Y-34707200D02*
X57885714Y-35421485D01*
X57885714Y-35421485D02*
X58504761Y-35421485D01*
X59076190Y-34754819D02*
X59171428Y-34754819D01*
X59171428Y-34754819D02*
X59266666Y-34802438D01*
X59266666Y-34802438D02*
X59314285Y-34850057D01*
X59314285Y-34850057D02*
X59361904Y-34945295D01*
X59361904Y-34945295D02*
X59409523Y-35135771D01*
X59409523Y-35135771D02*
X59409523Y-35373866D01*
X59409523Y-35373866D02*
X59361904Y-35564342D01*
X59361904Y-35564342D02*
X59314285Y-35659580D01*
X59314285Y-35659580D02*
X59266666Y-35707200D01*
X59266666Y-35707200D02*
X59171428Y-35754819D01*
X59171428Y-35754819D02*
X59076190Y-35754819D01*
X59076190Y-35754819D02*
X58980952Y-35707200D01*
X58980952Y-35707200D02*
X58933333Y-35659580D01*
X58933333Y-35659580D02*
X58885714Y-35564342D01*
X58885714Y-35564342D02*
X58838095Y-35373866D01*
X58838095Y-35373866D02*
X58838095Y-35135771D01*
X58838095Y-35135771D02*
X58885714Y-34945295D01*
X58885714Y-34945295D02*
X58933333Y-34850057D01*
X58933333Y-34850057D02*
X58980952Y-34802438D01*
X58980952Y-34802438D02*
X59076190Y-34754819D01*
X60361904Y-35754819D02*
X59790476Y-35754819D01*
X60076190Y-35754819D02*
X60076190Y-34754819D01*
X60076190Y-34754819D02*
X59980952Y-34897676D01*
X59980952Y-34897676D02*
X59885714Y-34992914D01*
X59885714Y-34992914D02*
X59790476Y-35040533D01*
X48785714Y-67129819D02*
X48785714Y-67939342D01*
X48785714Y-67939342D02*
X48833333Y-68034580D01*
X48833333Y-68034580D02*
X48880952Y-68082200D01*
X48880952Y-68082200D02*
X48976190Y-68129819D01*
X48976190Y-68129819D02*
X49166666Y-68129819D01*
X49166666Y-68129819D02*
X49261904Y-68082200D01*
X49261904Y-68082200D02*
X49309523Y-68034580D01*
X49309523Y-68034580D02*
X49357142Y-67939342D01*
X49357142Y-67939342D02*
X49357142Y-67129819D01*
X50309523Y-67129819D02*
X49833333Y-67129819D01*
X49833333Y-67129819D02*
X49785714Y-67606009D01*
X49785714Y-67606009D02*
X49833333Y-67558390D01*
X49833333Y-67558390D02*
X49928571Y-67510771D01*
X49928571Y-67510771D02*
X50166666Y-67510771D01*
X50166666Y-67510771D02*
X50261904Y-67558390D01*
X50261904Y-67558390D02*
X50309523Y-67606009D01*
X50309523Y-67606009D02*
X50357142Y-67701247D01*
X50357142Y-67701247D02*
X50357142Y-67939342D01*
X50357142Y-67939342D02*
X50309523Y-68034580D01*
X50309523Y-68034580D02*
X50261904Y-68082200D01*
X50261904Y-68082200D02*
X50166666Y-68129819D01*
X50166666Y-68129819D02*
X49928571Y-68129819D01*
X49928571Y-68129819D02*
X49833333Y-68082200D01*
X49833333Y-68082200D02*
X49785714Y-68034580D01*
X50976190Y-67129819D02*
X51071428Y-67129819D01*
X51071428Y-67129819D02*
X51166666Y-67177438D01*
X51166666Y-67177438D02*
X51214285Y-67225057D01*
X51214285Y-67225057D02*
X51261904Y-67320295D01*
X51261904Y-67320295D02*
X51309523Y-67510771D01*
X51309523Y-67510771D02*
X51309523Y-67748866D01*
X51309523Y-67748866D02*
X51261904Y-67939342D01*
X51261904Y-67939342D02*
X51214285Y-68034580D01*
X51214285Y-68034580D02*
X51166666Y-68082200D01*
X51166666Y-68082200D02*
X51071428Y-68129819D01*
X51071428Y-68129819D02*
X50976190Y-68129819D01*
X50976190Y-68129819D02*
X50880952Y-68082200D01*
X50880952Y-68082200D02*
X50833333Y-68034580D01*
X50833333Y-68034580D02*
X50785714Y-67939342D01*
X50785714Y-67939342D02*
X50738095Y-67748866D01*
X50738095Y-67748866D02*
X50738095Y-67510771D01*
X50738095Y-67510771D02*
X50785714Y-67320295D01*
X50785714Y-67320295D02*
X50833333Y-67225057D01*
X50833333Y-67225057D02*
X50880952Y-67177438D01*
X50880952Y-67177438D02*
X50976190Y-67129819D01*
X52261904Y-68129819D02*
X51690476Y-68129819D01*
X51976190Y-68129819D02*
X51976190Y-67129819D01*
X51976190Y-67129819D02*
X51880952Y-67272676D01*
X51880952Y-67272676D02*
X51785714Y-67367914D01*
X51785714Y-67367914D02*
X51690476Y-67415533D01*
X70458628Y-64078571D02*
X70934819Y-64078571D01*
X69934819Y-64411904D02*
X70458628Y-64078571D01*
X70458628Y-64078571D02*
X69934819Y-63745238D01*
X70030057Y-63459523D02*
X69982438Y-63411904D01*
X69982438Y-63411904D02*
X69934819Y-63316666D01*
X69934819Y-63316666D02*
X69934819Y-63078571D01*
X69934819Y-63078571D02*
X69982438Y-62983333D01*
X69982438Y-62983333D02*
X70030057Y-62935714D01*
X70030057Y-62935714D02*
X70125295Y-62888095D01*
X70125295Y-62888095D02*
X70220533Y-62888095D01*
X70220533Y-62888095D02*
X70363390Y-62935714D01*
X70363390Y-62935714D02*
X70934819Y-63507142D01*
X70934819Y-63507142D02*
X70934819Y-62888095D01*
X69934819Y-62269047D02*
X69934819Y-62173809D01*
X69934819Y-62173809D02*
X69982438Y-62078571D01*
X69982438Y-62078571D02*
X70030057Y-62030952D01*
X70030057Y-62030952D02*
X70125295Y-61983333D01*
X70125295Y-61983333D02*
X70315771Y-61935714D01*
X70315771Y-61935714D02*
X70553866Y-61935714D01*
X70553866Y-61935714D02*
X70744342Y-61983333D01*
X70744342Y-61983333D02*
X70839580Y-62030952D01*
X70839580Y-62030952D02*
X70887200Y-62078571D01*
X70887200Y-62078571D02*
X70934819Y-62173809D01*
X70934819Y-62173809D02*
X70934819Y-62269047D01*
X70934819Y-62269047D02*
X70887200Y-62364285D01*
X70887200Y-62364285D02*
X70839580Y-62411904D01*
X70839580Y-62411904D02*
X70744342Y-62459523D01*
X70744342Y-62459523D02*
X70553866Y-62507142D01*
X70553866Y-62507142D02*
X70315771Y-62507142D01*
X70315771Y-62507142D02*
X70125295Y-62459523D01*
X70125295Y-62459523D02*
X70030057Y-62411904D01*
X70030057Y-62411904D02*
X69982438Y-62364285D01*
X69982438Y-62364285D02*
X69934819Y-62269047D01*
X69934819Y-61602380D02*
X69934819Y-60983333D01*
X69934819Y-60983333D02*
X70315771Y-61316666D01*
X70315771Y-61316666D02*
X70315771Y-61173809D01*
X70315771Y-61173809D02*
X70363390Y-61078571D01*
X70363390Y-61078571D02*
X70411009Y-61030952D01*
X70411009Y-61030952D02*
X70506247Y-60983333D01*
X70506247Y-60983333D02*
X70744342Y-60983333D01*
X70744342Y-60983333D02*
X70839580Y-61030952D01*
X70839580Y-61030952D02*
X70887200Y-61078571D01*
X70887200Y-61078571D02*
X70934819Y-61173809D01*
X70934819Y-61173809D02*
X70934819Y-61459523D01*
X70934819Y-61459523D02*
X70887200Y-61554761D01*
X70887200Y-61554761D02*
X70839580Y-61602380D01*
D14*
%TO.C,J102*%
X28684000Y-38700000D02*
X30064000Y-38700000D01*
X28684000Y-40080000D02*
X28684000Y-38700000D01*
X28684000Y-41350000D02*
X28684000Y-44000000D01*
X28684000Y-41350000D02*
X31444000Y-41350000D01*
X28684000Y-44000000D02*
X31444000Y-44000000D01*
X31444000Y-41350000D02*
X31444000Y-44000000D01*
%TO.C,C102*%
X37261252Y-33735000D02*
X36738748Y-33735000D01*
X37261252Y-32265000D02*
X36738748Y-32265000D01*
%TO.C,C101*%
X37738748Y-43235000D02*
X38261252Y-43235000D01*
X37738748Y-41765000D02*
X38261252Y-41765000D01*
%TO.C,C208*%
X66010000Y-51853733D02*
X66010000Y-52146267D01*
X64990000Y-51853733D02*
X64990000Y-52146267D01*
%TO.C,C206*%
X43990000Y-60646267D02*
X43990000Y-60353733D01*
X45010000Y-60646267D02*
X45010000Y-60353733D01*
%TO.C,Y501*%
X59885000Y-73950000D02*
G75*
G02*
X59664999Y-73750000I90001J320002D01*
G01*
X60700000Y-71930000D02*
X60700000Y-72570000D01*
X59885000Y-73950000D02*
X60575000Y-73950000D01*
X59670000Y-70750000D02*
X59330000Y-70750000D01*
X59665000Y-73750000D02*
X59335000Y-73750000D01*
X58300000Y-71930000D02*
X58300000Y-72570000D01*
%TO.C,C502*%
X56640580Y-75760000D02*
X56359420Y-75760000D01*
X56640580Y-74740000D02*
X56359420Y-74740000D01*
%TO.C,C211*%
X64500000Y-55286665D02*
X64500000Y-55518335D01*
X65500000Y-55286665D02*
X65500000Y-55518335D01*
%TO.C,U201*%
X49390000Y-50390000D02*
X49390000Y-51340000D01*
X49390000Y-60610000D02*
X49390000Y-59660000D01*
X50340000Y-50390000D02*
X49390000Y-50390000D01*
X50340000Y-60610000D02*
X49390000Y-60610000D01*
X58660000Y-50390000D02*
X59610000Y-50390000D01*
X58660000Y-60610000D02*
X59610000Y-60610000D01*
X59610000Y-50390000D02*
X59610000Y-51340000D01*
X59610000Y-60610000D02*
X59610000Y-59660000D01*
X60565000Y-60130000D02*
X59885000Y-60130000D01*
X60225000Y-59660000D01*
X60565000Y-60130000D01*
G36*
X60565000Y-60130000D02*
G01*
X59885000Y-60130000D01*
X60225000Y-59660000D01*
X60565000Y-60130000D01*
G37*
%TO.C,R205*%
X41000000Y-50384165D02*
X41000000Y-50615835D01*
X42000000Y-50384165D02*
X42000000Y-50615835D01*
%TO.C,C209*%
X63500000Y-66713335D02*
X63500000Y-66481665D01*
X64500000Y-66713335D02*
X64500000Y-66481665D01*
%TO.C,U102*%
X41000000Y-52940000D02*
X40200000Y-52940000D01*
X41000000Y-52940000D02*
X41800000Y-52940000D01*
X41000000Y-56060000D02*
X40200000Y-56060000D01*
X41000000Y-56060000D02*
X41800000Y-56060000D01*
X39700000Y-52990000D02*
X39460000Y-52660000D01*
X39940000Y-52660000D01*
X39700000Y-52990000D01*
G36*
X39700000Y-52990000D02*
G01*
X39460000Y-52660000D01*
X39940000Y-52660000D01*
X39700000Y-52990000D01*
G37*
%TO.C,C503*%
X55634165Y-72500000D02*
X55865835Y-72500000D01*
X55634165Y-73500000D02*
X55865835Y-73500000D01*
%TO.C,R402*%
X58000000Y-40384165D02*
X58000000Y-40615835D01*
X59000000Y-40384165D02*
X59000000Y-40615835D01*
%TO.C,C205*%
X58518335Y-64000000D02*
X58286665Y-64000000D01*
X58518335Y-65000000D02*
X58286665Y-65000000D01*
%TO.C,C401*%
X49500000Y-37615835D02*
X49500000Y-37384165D01*
X50500000Y-37615835D02*
X50500000Y-37384165D01*
%TO.C,C207*%
X62500000Y-52286665D02*
X62500000Y-52518335D01*
X63500000Y-52286665D02*
X63500000Y-52518335D01*
%TO.C,R202*%
X58286665Y-65750000D02*
X58518335Y-65750000D01*
X58286665Y-66750000D02*
X58518335Y-66750000D01*
%TO.C,R601*%
X73115835Y-45000000D02*
X72884165Y-45000000D01*
X73115835Y-46000000D02*
X72884165Y-46000000D01*
%TO.C,R405*%
X61000000Y-40384165D02*
X61000000Y-40615835D01*
X62000000Y-40384165D02*
X62000000Y-40615835D01*
%TO.C,R406*%
X53000000Y-34177335D02*
X53000000Y-33945665D01*
X54000000Y-34177335D02*
X54000000Y-33945665D01*
%TO.C,C202*%
X58481665Y-46500000D02*
X58713335Y-46500000D01*
X58481665Y-47500000D02*
X58713335Y-47500000D01*
%TO.C,R103*%
X38500000Y-58384165D02*
X38500000Y-58615835D01*
X39500000Y-58384165D02*
X39500000Y-58615835D01*
%TO.C,D101*%
X38265000Y-60915000D02*
X38265000Y-63200000D01*
X39735000Y-60915000D02*
X38265000Y-60915000D01*
X39735000Y-63200000D02*
X39735000Y-60915000D01*
%TO.C,R502*%
X53000000Y-64713335D02*
X53000000Y-64481665D01*
X54000000Y-64713335D02*
X54000000Y-64481665D01*
%TO.C,U101*%
X35750000Y-35640000D02*
X38250000Y-35640000D01*
X38250000Y-40360000D02*
X35750000Y-40360000D01*
X35230000Y-35790000D02*
X34990000Y-35460000D01*
X35470000Y-35460000D01*
X35230000Y-35790000D01*
G36*
X35230000Y-35790000D02*
G01*
X34990000Y-35460000D01*
X35470000Y-35460000D01*
X35230000Y-35790000D01*
G37*
%TO.C,R504*%
X62500000Y-72365835D02*
X62500000Y-72134165D01*
X63500000Y-72365835D02*
X63500000Y-72134165D01*
%TO.C,R404*%
X62500000Y-31884165D02*
X62500000Y-32115835D01*
X63500000Y-31884165D02*
X63500000Y-32115835D01*
%TO.C,C501*%
X51786665Y-73500000D02*
X52018335Y-73500000D01*
X51786665Y-74500000D02*
X52018335Y-74500000D01*
%TO.C,C203*%
X48500000Y-48518335D02*
X48500000Y-48286665D01*
X49500000Y-48518335D02*
X49500000Y-48286665D01*
%TO.C,R410*%
X55365835Y-41562500D02*
X55134165Y-41562500D01*
X55365835Y-42562500D02*
X55134165Y-42562500D01*
%TO.C,C210*%
X64500000Y-58518335D02*
X64500000Y-58286665D01*
X65500000Y-58518335D02*
X65500000Y-58286665D01*
%TO.C,R204*%
X38490000Y-50374165D02*
X38490000Y-50605835D01*
X39490000Y-50374165D02*
X39490000Y-50605835D01*
%TO.C,R409*%
X47500000Y-37615835D02*
X47500000Y-37384165D01*
X48500000Y-37615835D02*
X48500000Y-37384165D01*
%TO.C,C504*%
X59684165Y-75900000D02*
X59915835Y-75900000D01*
X59684165Y-74900000D02*
X59915835Y-74900000D01*
%TO.C,R206*%
X66713335Y-64500000D02*
X66481665Y-64500000D01*
X66713335Y-65500000D02*
X66481665Y-65500000D01*
%TO.C,J601*%
X75420000Y-54060000D02*
X75420000Y-38710000D01*
X78180000Y-38710000D02*
X75420000Y-38710000D01*
X78180000Y-54060000D02*
X75420000Y-54060000D01*
X78180000Y-54060000D02*
X78180000Y-38710000D01*
X78180000Y-55330000D02*
X78180000Y-56710000D01*
X78180000Y-56710000D02*
X76800000Y-56710000D01*
%TO.C,R203*%
X62500000Y-55518335D02*
X62500000Y-55286665D01*
X63500000Y-55518335D02*
X63500000Y-55286665D01*
%TO.C,R102*%
X36000000Y-58384165D02*
X36000000Y-58615835D01*
X37000000Y-58384165D02*
X37000000Y-58615835D01*
%TO.C,J101*%
X29850000Y-49830000D02*
X31550000Y-49830000D01*
X29850000Y-59170000D02*
X31550000Y-59170000D01*
%TO.C,Y401*%
X56500000Y-31830000D02*
X56500000Y-32170000D01*
X57680000Y-30800000D02*
X58320000Y-30800000D01*
X57680000Y-33200000D02*
X58320000Y-33200000D01*
X59500000Y-31835000D02*
X59500000Y-32165000D01*
X59700000Y-31615000D02*
X59700000Y-30925000D01*
X59700000Y-31615000D02*
G75*
G02*
X59500000Y-31835001I-320002J90001D01*
G01*
%TO.C,C201*%
X61750000Y-61134165D02*
X61750000Y-61365835D01*
X62750000Y-61134165D02*
X62750000Y-61365835D01*
%TO.C,D201*%
X38265000Y-45115000D02*
X38265000Y-47400000D01*
X39735000Y-45115000D02*
X38265000Y-45115000D01*
X39735000Y-47400000D02*
X39735000Y-45115000D01*
%TO.C,R407*%
X49500000Y-40746665D02*
X49500000Y-40978335D01*
X50500000Y-40746665D02*
X50500000Y-40978335D01*
%TO.C,R201*%
X61500000Y-66481665D02*
X61500000Y-66713335D01*
X62500000Y-66481665D02*
X62500000Y-66713335D01*
%TO.C,R603*%
X73115835Y-50000000D02*
X72884165Y-50000000D01*
X73115835Y-51000000D02*
X72884165Y-51000000D01*
%TO.C,R207*%
X36100000Y-46715835D02*
X36100000Y-46484165D01*
X37100000Y-46715835D02*
X37100000Y-46484165D01*
%TO.C,C213*%
X51490000Y-45646267D02*
X51490000Y-45353733D01*
X52510000Y-45646267D02*
X52510000Y-45353733D01*
%TO.C,J501*%
X38590000Y-79570000D02*
X38590000Y-78190000D01*
X39970000Y-79570000D02*
X38590000Y-79570000D01*
X41240000Y-76810000D02*
X54050000Y-76810000D01*
X41240000Y-79570000D02*
X41240000Y-76810000D01*
X41240000Y-79570000D02*
X54050000Y-79570000D01*
X54050000Y-79570000D02*
X54050000Y-76810000D01*
%TO.C,C403*%
X52580835Y-41562500D02*
X52349165Y-41562500D01*
X52580835Y-42562500D02*
X52349165Y-42562500D01*
%TO.C,C204*%
X46000000Y-60115835D02*
X46000000Y-59884165D01*
X47000000Y-60115835D02*
X47000000Y-59884165D01*
%TO.C,Y202*%
X66790000Y-58960000D02*
X70210000Y-58960000D01*
X70210000Y-58960000D02*
X70210000Y-54840000D01*
D15*
%TO.C,U401*%
X51561500Y-36600000D02*
X51561500Y-37311500D01*
X51561500Y-40400000D02*
X51561500Y-39688500D01*
X56938500Y-36600000D02*
X56938500Y-37311500D01*
X56938500Y-40400000D02*
X56938500Y-39688500D01*
D16*
X52050000Y-36100000D02*
G75*
G02*
X51950000Y-36100000I-50000J0D01*
G01*
X51950000Y-36100000D02*
G75*
G02*
X52050000Y-36100000I50000J0D01*
G01*
D14*
%TO.C,C214*%
X49990000Y-45646267D02*
X49990000Y-45353733D01*
X51010000Y-45646267D02*
X51010000Y-45353733D01*
%TO.C,R403*%
X59500000Y-40384165D02*
X59500000Y-40615835D01*
X60500000Y-40384165D02*
X60500000Y-40615835D01*
%TO.C,R505*%
X55621665Y-70750000D02*
X55853335Y-70750000D01*
X55621665Y-71750000D02*
X55853335Y-71750000D01*
%TO.C,R506*%
X54600000Y-70715835D02*
X54600000Y-70484165D01*
X55600000Y-70715835D02*
X55600000Y-70484165D01*
%TO.C,R501*%
X50000000Y-64615835D02*
X50000000Y-64384165D01*
X51000000Y-64615835D02*
X51000000Y-64384165D01*
%TO.C,J703*%
X75420000Y-60300000D02*
X76800000Y-60300000D01*
X75420000Y-61680000D02*
X75420000Y-60300000D01*
X75420000Y-62950000D02*
X75420000Y-70680000D01*
X75420000Y-62950000D02*
X78180000Y-62950000D01*
X75420000Y-70680000D02*
X78180000Y-70680000D01*
X78180000Y-62950000D02*
X78180000Y-70680000D01*
%TO.C,R208*%
X48000000Y-45481665D02*
X48000000Y-45713335D01*
X49000000Y-45481665D02*
X49000000Y-45713335D01*
%TO.C,C404*%
X60500000Y-31884165D02*
X60500000Y-32115835D01*
X61500000Y-31884165D02*
X61500000Y-32115835D01*
D15*
%TO.C,U501*%
X50500000Y-69750000D02*
X51010000Y-69750000D01*
X50500000Y-72250000D02*
X51010000Y-72250000D01*
X52990000Y-69750000D02*
X53500000Y-69750000D01*
X53500000Y-72250000D02*
X52990000Y-72250000D01*
D11*
X50100000Y-70200000D02*
G75*
G02*
X49900000Y-70200000I-100000J0D01*
G01*
X49900000Y-70200000D02*
G75*
G02*
X50100000Y-70200000I100000J0D01*
G01*
D14*
%TO.C,Y203*%
X65525000Y-61702500D02*
X65525000Y-62342500D01*
X66890000Y-63522500D02*
X66560000Y-63522500D01*
X66895000Y-60522500D02*
X66555000Y-60522500D01*
X67110000Y-63722500D02*
X67800000Y-63722500D01*
X67925000Y-61702500D02*
X67925000Y-62342500D01*
X67110000Y-63722500D02*
G75*
G02*
X66889999Y-63522500I90001J320002D01*
G01*
%TO.C,R401*%
X54215835Y-34150000D02*
X53984165Y-34150000D01*
X54215835Y-35150000D02*
X53984165Y-35150000D01*
%TO.C,R602*%
X73115835Y-47500000D02*
X72884165Y-47500000D01*
X73115835Y-48500000D02*
X72884165Y-48500000D01*
%TO.C,C402*%
X51580835Y-34500000D02*
X51349165Y-34500000D01*
X51580835Y-35500000D02*
X51349165Y-35500000D01*
%TO.C,C212*%
X64000000Y-62518335D02*
X64000000Y-62286665D01*
X65000000Y-62518335D02*
X65000000Y-62286665D01*
%TO.C,R101*%
X36000000Y-50615835D02*
X36000000Y-50384165D01*
X37000000Y-50615835D02*
X37000000Y-50384165D01*
%TO.C,R503*%
X51500000Y-64615835D02*
X51500000Y-64384165D01*
X52500000Y-64615835D02*
X52500000Y-64384165D01*
%TO.C,R408*%
X47500000Y-40746665D02*
X47500000Y-40978335D01*
X48500000Y-40746665D02*
X48500000Y-40978335D01*
%TO.C,J201*%
X58727064Y-68015000D02*
X58272936Y-68015000D01*
X58727064Y-69485000D02*
X58272936Y-69485000D01*
%TD*%
M02*
